<svg width="210" height="210" viewBox="0 0 210 210" fill="none" xmlns="http://www.w3.org/2000/svg">
<circle cx="105" cy="105" r="103.5" stroke="black" stroke-width="3"/>
<path d="M53.0078 113.777V131.332C53.0078 137.796 58.2475 143.035 64.7111 143.035H140.782C147.246 143.035 152.486 137.796 152.486 131.332V125.48M53.0078 96.2223V89.0364C53.0078 83.3097 57.6502 78.6673 63.3769 78.6673V78.6673C67.6992 78.6673 71.5682 75.9861 73.0858 71.939L76.4925 62.8547C78.2054 58.2869 82.5721 55.2607 87.4506 55.2607H118.043C122.921 55.2607 127.288 58.2869 129.001 62.8547L132.408 71.939C133.925 75.9861 137.794 78.6673 142.117 78.6673V78.6673C147.843 78.6673 152.486 83.3097 152.486 89.0364V107.926" stroke="#222222" stroke-width="5.85164" stroke-linecap="round"/>
<circle cx="102.747" cy="104.999" r="20.4808" stroke="#222222" stroke-width="5.85164"/>
</svg>
