<svg width="292" height="291" viewBox="0 0 292 291" fill="none" xmlns="http://www.w3.org/2000/svg">
<path d="M260.006 51.9026L258.586 49.5746C246.649 29.8914 225.057 18.0419 202.324 19.4678C199.388 19.6514 196.47 20.0521 193.594 20.6667C172.904 25.0957 154.896 40.7457 147.429 60.7898C143.041 72.5753 141.813 86.1475 133.461 95.5003C122.619 107.682 104.216 108.06 88.0654 107.559C71.9149 107.059 53.4655 107.484 42.6694 119.706C35.9124 127.365 33.7648 138.248 34.3119 148.503C35.7552 175.647 54.6819 199.923 78.7243 211.982C102.767 224.041 131.104 225.129 157.428 219.821C194.309 212.389 229.381 191.973 250.467 160.457C271.553 128.942 276.872 85.938 260.006 51.9026Z" fill="#F5F5F5"/>
<path d="M232.465 143.009H145.736C143.685 143.009 142.022 144.672 142.022 146.722V191.618C142.022 193.669 143.685 195.331 145.736 195.331H232.465C234.516 195.331 236.178 193.669 236.178 191.618V146.722C236.178 144.672 234.516 143.009 232.465 143.009Z" fill="white"/>
<path d="M232.471 195.331C232.471 195.331 232.721 195.331 233.199 195.244C233.906 195.091 234.555 194.737 235.067 194.225C235.44 193.849 235.728 193.396 235.911 192.898C236.015 192.611 236.086 192.312 236.12 192.008C236.12 191.694 236.12 191.356 236.12 191.007C236.12 189.61 236.12 187.998 236.12 186.188C236.12 178.93 236.091 168.443 236.074 155.481C236.074 153.858 236.074 152.199 236.074 150.505V147.933C236.074 147.066 236.161 146.187 235.806 145.384C235.561 144.776 235.155 144.246 234.63 143.852C234.106 143.458 233.484 143.215 232.832 143.149C232.401 143.12 231.924 143.149 231.47 143.149H225.854H201.515H145.747C145.153 143.148 144.568 143.295 144.046 143.578C143.524 143.86 143.08 144.269 142.756 144.767C142.426 145.26 142.225 145.829 142.174 146.42C142.145 147.002 142.174 147.642 142.174 148.247V169.77C142.174 174.426 142.174 179.004 142.174 183.505V190.163C142.174 190.71 142.174 191.263 142.174 191.798C142.2 192.322 142.339 192.834 142.581 193.3C142.829 193.757 143.173 194.155 143.589 194.468C144.004 194.78 144.483 194.999 144.991 195.11C145.508 195.193 146.033 195.22 146.556 195.191H169.295H190.503L221.209 195.238L229.555 195.267L221.209 195.296L190.503 195.343H169.295H146.556C146.013 195.371 145.469 195.342 144.933 195.255C144.384 195.137 143.868 194.901 143.419 194.563C142.971 194.226 142.602 193.794 142.337 193.3C142.069 192.8 141.916 192.248 141.889 191.682C141.889 191.1 141.889 190.588 141.889 190.035C141.889 187.841 141.889 185.617 141.889 183.377V169.77C141.889 165.114 141.889 160.37 141.889 155.54V148.265C141.889 147.648 141.889 147.054 141.889 146.414C141.932 145.778 142.132 145.162 142.471 144.621C142.824 144.084 143.304 143.64 143.867 143.329C144.438 143.026 145.072 142.864 145.718 142.858H201.485H225.825H231.441C231.907 142.858 232.349 142.858 232.826 142.858C233.293 142.907 233.747 143.041 234.165 143.254C234.995 143.675 235.646 144.382 235.998 145.244C236.168 145.666 236.259 146.116 236.266 146.571C236.266 147.008 236.266 147.444 236.266 147.881V150.453C236.266 152.145 236.266 153.803 236.266 155.429C236.266 168.39 236.225 178.878 236.213 186.135C236.213 187.945 236.213 189.558 236.213 190.954C236.213 191.304 236.213 191.635 236.213 191.961C236.176 192.272 236.102 192.576 235.992 192.869C235.804 193.375 235.509 193.834 235.125 194.214C234.601 194.729 233.937 195.079 233.216 195.22C233.036 195.254 232.853 195.274 232.669 195.279L232.471 195.331Z" fill="#263238"/>
<path d="M174.83 161.499V162.151H172.106V158.659H174.76V159.311H172.915V160.05H174.545V160.685H172.915V161.499H174.83Z" fill="#263238"/>
<path d="M178.706 158.636V162.128H178.036L176.29 159.992V162.128H175.487V158.636H176.133L177.879 160.772V158.636H178.706Z" fill="#263238"/>
<path d="M180.272 159.299H179.143V158.636H182.21V159.299H181.081V162.151H180.272V159.299Z" fill="#263238"/>
<path d="M185.37 161.499V162.151H182.646V158.659H185.306V159.311H183.455V160.05H185.091V160.685H183.455V161.499H185.37Z" fill="#263238"/>
<path d="M188.262 162.151L187.581 161.173H186.836V162.151H186.027V158.659H187.552C188.489 158.659 189.077 159.142 189.077 159.934C189.084 160.17 189.019 160.404 188.89 160.602C188.761 160.801 188.574 160.956 188.355 161.045L189.141 162.174L188.262 162.151ZM187.5 159.299H186.836V160.522H187.5C187.995 160.522 188.245 160.295 188.245 159.91C188.245 159.526 187.995 159.299 187.5 159.299Z" fill="#263238"/>
<path d="M190.916 160.394C190.939 160.014 191.073 159.65 191.301 159.346C191.529 159.042 191.841 158.812 192.199 158.685C192.557 158.557 192.944 158.537 193.313 158.628C193.682 158.718 194.016 158.916 194.274 159.195L193.75 159.678C193.642 159.549 193.506 159.445 193.353 159.374C193.201 159.303 193.034 159.265 192.866 159.265C192.581 159.285 192.315 159.413 192.12 159.622C191.926 159.83 191.818 160.105 191.818 160.391C191.818 160.676 191.926 160.951 192.12 161.16C192.315 161.369 192.581 161.496 192.866 161.517C193.035 161.519 193.202 161.484 193.356 161.412C193.509 161.34 193.644 161.235 193.75 161.104L194.274 161.587C194.018 161.868 193.684 162.068 193.315 162.16C192.946 162.253 192.557 162.234 192.198 162.107C191.84 161.979 191.527 161.749 191.298 161.444C191.07 161.139 190.937 160.774 190.916 160.394Z" fill="#263238"/>
<path d="M194.53 160.393C194.509 160.008 194.604 159.626 194.803 159.296C195.002 158.965 195.295 158.702 195.645 158.54C195.995 158.378 196.386 158.325 196.766 158.388C197.147 158.45 197.5 158.626 197.779 158.891C198.059 159.156 198.253 159.5 198.336 159.876C198.418 160.253 198.386 160.646 198.243 161.004C198.099 161.362 197.852 161.669 197.533 161.885C197.213 162.101 196.836 162.216 196.451 162.215C196.203 162.229 195.955 162.193 195.722 162.108C195.489 162.023 195.276 161.89 195.096 161.72C194.916 161.549 194.773 161.343 194.676 161.115C194.579 160.887 194.529 160.642 194.53 160.393ZM197.551 160.393C197.546 160.177 197.478 159.967 197.354 159.789C197.231 159.611 197.057 159.474 196.856 159.394C196.655 159.314 196.434 159.296 196.222 159.341C196.01 159.386 195.817 159.492 195.665 159.647C195.514 159.802 195.411 159.998 195.371 160.211C195.33 160.423 195.353 160.643 195.437 160.843C195.521 161.043 195.662 161.213 195.842 161.333C196.023 161.453 196.234 161.517 196.451 161.517C196.598 161.52 196.745 161.493 196.881 161.438C197.018 161.382 197.141 161.299 197.244 161.194C197.347 161.088 197.428 160.963 197.481 160.825C197.533 160.688 197.557 160.541 197.551 160.393Z" fill="#263238"/>
<path d="M198.994 158.636H200.577C201.04 158.636 201.484 158.82 201.812 159.147C202.139 159.475 202.323 159.919 202.323 160.382C202.323 160.845 202.139 161.289 201.812 161.616C201.484 161.944 201.04 162.128 200.577 162.128H198.982L198.994 158.636ZM200.548 161.482C200.837 161.482 201.113 161.367 201.318 161.163C201.522 160.959 201.636 160.682 201.636 160.393C201.636 160.105 201.522 159.828 201.318 159.624C201.113 159.42 200.837 159.305 200.548 159.305H199.809V161.482H200.548Z" fill="#263238"/>
<path d="M205.868 161.499V162.151H203.145V158.659H205.816V159.311H203.954V160.05H205.589V160.685H203.954V161.499H205.868Z" fill="#263238"/>
<path d="M161.478 167.768H152.929C151.659 167.768 150.63 168.797 150.63 170.066V183.377C150.63 184.646 151.659 185.676 152.929 185.676H161.478C162.748 185.676 163.777 184.646 163.777 183.377V170.066C163.777 168.797 162.748 167.768 161.478 167.768Z" fill="#EBEBEB"/>
<path d="M177.897 167.768H169.348C168.078 167.768 167.049 168.797 167.049 170.066V183.377C167.049 184.646 168.078 185.676 169.348 185.676H177.897C179.167 185.676 180.196 184.646 180.196 183.377V170.066C180.196 168.797 179.167 167.768 177.897 167.768Z" fill="#EBEBEB"/>
<path d="M194.315 167.768H185.766C184.496 167.768 183.467 168.797 183.467 170.066V183.377C183.467 184.646 184.496 185.676 185.766 185.676H194.315C195.585 185.676 196.614 184.646 196.614 183.377V170.066C196.614 168.797 195.585 167.768 194.315 167.768Z" fill="#EBEBEB"/>
<path d="M210.727 167.768H202.178C200.908 167.768 199.879 168.797 199.879 170.066V183.377C199.879 184.646 200.908 185.676 202.178 185.676H210.727C211.997 185.676 213.026 184.646 213.026 183.377V170.066C213.026 168.797 211.997 167.768 210.727 167.768Z" fill="#EBEBEB"/>
<path d="M227.146 167.768H218.597C217.327 167.768 216.298 168.797 216.298 170.066V183.377C216.298 184.646 217.327 185.676 218.597 185.676H227.146C228.416 185.676 229.445 184.646 229.445 183.377V170.066C229.445 168.797 228.416 167.768 227.146 167.768Z" fill="#EBEBEB"/>
<path d="M160.071 178.092C160.071 179.367 159.081 180.199 157.743 180.199C155.904 180.199 154.932 178.878 154.932 176.707C154.932 174.344 156.195 173.122 158.04 173.122C158.592 173.097 159.141 173.222 159.628 173.483L159.419 173.89C158.997 173.659 158.52 173.548 158.04 173.57C156.474 173.57 155.444 174.6 155.444 176.631C155.444 176.912 155.463 177.192 155.502 177.469C155.666 177.019 155.972 176.635 156.375 176.376C156.777 176.116 157.254 175.995 157.731 176.032C159.128 176.032 160.071 176.847 160.071 178.092ZM159.559 178.092C159.559 177.097 158.843 176.445 157.661 176.445C157.423 176.418 157.181 176.441 156.952 176.512C156.722 176.583 156.51 176.701 156.328 176.858C156.146 177.014 155.999 177.207 155.894 177.423C155.79 177.64 155.732 177.875 155.723 178.115C155.723 178.936 156.41 179.751 157.719 179.751C157.952 179.776 158.187 179.752 158.41 179.68C158.632 179.608 158.837 179.49 159.011 179.334C159.184 179.177 159.323 178.985 159.417 178.771C159.512 178.557 159.56 178.326 159.559 178.092Z" fill="#556C40"/>
<path d="M176.308 178.226H174.842V180.164H174.341V178.226H170.354V177.859L174.149 173.174H174.731L171.006 177.778H174.364V176.073H174.853V177.778H176.32L176.308 178.226Z" fill="#556C40"/>
<path d="M193.238 181.159C191.212 181.361 189.171 181.361 187.145 181.159C189.171 180.957 191.212 180.957 193.238 181.159Z" fill="#556C40"/>
<path d="M148 149.661C148.788 149.661 149.426 149.023 149.426 148.235C149.426 147.448 148.788 146.81 148 146.81C147.213 146.81 146.574 147.448 146.574 148.235C146.574 149.023 147.213 149.661 148 149.661Z" fill="#263238"/>
<path d="M153.534 148.235C153.534 148.517 153.451 148.793 153.294 149.028C153.137 149.262 152.915 149.445 152.654 149.553C152.394 149.661 152.107 149.689 151.83 149.634C151.554 149.579 151.3 149.443 151.1 149.244C150.901 149.044 150.765 148.79 150.71 148.514C150.655 148.237 150.683 147.95 150.791 147.69C150.899 147.429 151.082 147.207 151.316 147.05C151.551 146.893 151.827 146.81 152.109 146.81C152.487 146.81 152.849 146.96 153.117 147.227C153.384 147.495 153.534 147.857 153.534 148.235Z" fill="#263238"/>
<path d="M156.142 149.661C156.929 149.661 157.568 149.023 157.568 148.235C157.568 147.448 156.929 146.81 156.142 146.81C155.354 146.81 154.716 147.448 154.716 148.235C154.716 149.023 155.354 149.661 156.142 149.661Z" fill="#263238"/>
<path d="M236.324 152.251C236.324 152.333 215.238 152.403 189.24 152.403C163.242 152.403 142.156 152.333 142.156 152.251C142.156 152.17 163.23 152.1 189.24 152.1C215.25 152.1 236.324 152.164 236.324 152.251Z" fill="#263238"/>
<path d="M219.032 28.105H115.063C112.954 28.105 111.245 29.8143 111.245 31.9229V127.575C111.245 129.683 112.954 131.393 115.063 131.393H219.032C221.14 131.393 222.849 129.683 222.849 127.575V31.9229C222.849 29.8143 221.14 28.105 219.032 28.105Z" fill="white"/>
<path d="M219.032 131.392H219.305C219.576 131.37 219.843 131.319 220.103 131.241C220.61 131.086 221.08 130.826 221.481 130.478C221.882 130.13 222.205 129.702 222.431 129.222C222.744 128.5 222.868 127.711 222.792 126.928C222.792 126.061 222.792 125.107 222.792 124.077C222.792 122.016 222.792 119.636 222.792 116.959C222.792 106.25 222.763 90.7688 222.739 71.6093C222.739 62.0354 222.739 51.5536 222.739 40.2919C222.739 37.4828 222.739 34.6252 222.739 31.7191C222.696 31.0085 222.447 30.3259 222.023 29.7537C221.6 29.1815 221.02 28.7442 220.353 28.4948C219.66 28.2755 218.93 28.1964 218.205 28.262H197.434H115.075C114.201 28.2671 113.357 28.5827 112.695 29.1524C112.01 29.7306 111.563 30.5407 111.438 31.4281C111.398 31.8731 111.384 32.32 111.397 32.7667V68.6004C111.397 82.3763 111.397 95.6634 111.397 108.322C111.397 114.654 111.397 120.821 111.397 126.824C111.397 127.196 111.397 127.58 111.397 127.935C111.43 128.293 111.515 128.643 111.647 128.977C111.916 129.645 112.376 130.22 112.968 130.63C113.555 131.039 114.249 131.266 114.965 131.282H125.737H157.055L202.404 131.334H214.731L202.404 131.363L157.055 131.41H125.737H114.959C114.19 131.39 113.443 131.147 112.812 130.708C112.18 130.27 111.69 129.656 111.403 128.942C111.26 128.584 111.168 128.208 111.129 127.825C111.1 127.429 111.129 127.068 111.129 126.69C111.129 120.687 111.129 114.52 111.129 108.188C111.129 95.5295 111.129 82.2425 111.129 68.4665C111.129 61.5757 111.129 54.5703 111.129 47.4505V32.7376C111.113 32.2773 111.129 31.8164 111.176 31.3582C111.304 30.4117 111.776 29.5455 112.503 28.9255C113.216 28.3016 114.128 27.9511 115.075 27.9361H197.434H218.171C218.927 27.8708 219.689 27.9579 220.411 28.1921C221.125 28.4593 221.746 28.9274 222.199 29.5398C222.653 30.1522 222.919 30.8829 222.966 31.6434C222.966 34.5534 222.966 37.4168 222.966 40.2337C222.966 51.4954 222.966 61.9772 222.966 71.5511C222.966 90.6989 222.931 106.192 222.92 116.901C222.92 119.578 222.92 121.958 222.92 124.018C222.92 125.049 222.92 126.003 222.92 126.87C222.994 127.666 222.861 128.468 222.536 129.198C222.244 129.81 221.793 130.333 221.232 130.712C220.67 131.092 220.017 131.315 219.34 131.357L219.032 131.392Z" fill="#263238"/>
<path d="M119.679 35.2633C119.679 35.6457 119.565 36.0195 119.353 36.3374C119.14 36.6553 118.838 36.9029 118.485 37.049C118.131 37.1951 117.743 37.233 117.368 37.158C116.993 37.0829 116.648 36.8983 116.378 36.6275C116.108 36.3567 115.925 36.0119 115.851 35.6367C115.777 35.2615 115.816 34.8728 115.963 34.5198C116.11 34.1669 116.359 33.8655 116.677 33.6539C116.996 33.4423 117.37 33.3299 117.753 33.3311C118.006 33.3311 118.257 33.3811 118.491 33.4783C118.725 33.5754 118.938 33.7179 119.117 33.8974C119.296 34.0769 119.437 34.2899 119.534 34.5243C119.63 34.7587 119.68 35.0098 119.679 35.2633Z" fill="#263238"/>
<path d="M123.375 37.1898C124.439 37.1898 125.301 36.3273 125.301 35.2633C125.301 34.1994 124.439 33.3369 123.375 33.3369C122.311 33.3369 121.448 34.1994 121.448 35.2633C121.448 36.3273 122.311 37.1898 123.375 37.1898Z" fill="#263238"/>
<path d="M129.008 37.1898C130.072 37.1898 130.935 36.3273 130.935 35.2633C130.935 34.1994 130.072 33.3369 129.008 33.3369C127.945 33.3369 127.082 34.1994 127.082 35.2633C127.082 36.3273 127.945 37.1898 129.008 37.1898Z" fill="#263238"/>
<path d="M222.849 40.7402C222.849 40.8275 197.864 40.8915 167.047 40.8915C136.23 40.8915 111.245 40.8275 111.245 40.7402C111.245 40.6529 136.225 40.5889 167.047 40.5889C197.87 40.5889 222.849 40.6529 222.849 40.7402Z" fill="#263238"/>
<path d="M182.814 79.6467C182.814 79.6467 182.855 79.5826 182.948 79.4662L183.024 79.3673L183.099 79.2334C183.164 79.1252 183.22 79.0123 183.268 78.8959C183.268 78.8319 183.326 78.762 183.35 78.6864L183.419 78.4419C183.445 78.3521 183.464 78.2608 183.478 78.1684C183.478 78.0694 183.513 77.9705 183.518 77.8657C183.556 77.3817 183.533 76.8947 183.449 76.4166C183.203 75.1077 182.756 73.8451 182.122 72.6743C181.304 71.1116 180.347 69.6254 179.264 68.2336C177.96 66.5409 176.538 64.9423 175.01 63.4496C173.259 61.7315 171.39 60.1387 169.416 58.683C168.375 57.9148 167.275 57.1698 166.117 56.4714C164.936 55.75 163.709 55.1065 162.444 54.545C161.144 53.9516 159.776 53.5215 158.37 53.2646C157.651 53.1366 156.917 53.119 156.193 53.2122C155.83 53.2638 155.475 53.3657 155.14 53.5149C154.811 53.6764 154.514 53.8951 154.261 54.1609C154.02 54.4396 153.835 54.7615 153.714 55.1095C153.605 55.4604 153.544 55.8247 153.534 56.1921C153.524 56.9226 153.624 57.6504 153.831 58.3513C154.248 59.7224 154.834 61.0362 155.577 62.2623C156.276 63.4551 157.054 64.6003 157.905 65.6903C158.731 66.7612 159.598 67.7739 160.477 68.7225C162.149 70.5181 163.946 72.1927 165.855 73.7335C167.511 75.0841 169.262 76.3152 171.093 77.4176C172.599 78.3336 174.185 79.1127 175.83 79.7456C177.067 80.2392 178.372 80.5414 179.7 80.6419C180.184 80.6657 180.668 80.6325 181.144 80.5429C181.249 80.5429 181.342 80.4906 181.435 80.4673C181.526 80.4434 181.615 80.4143 181.703 80.38L181.935 80.281L182.139 80.1763C182.25 80.116 182.355 80.0459 182.453 79.9668L182.576 79.8795L182.669 79.7922C182.773 79.6874 182.832 79.6408 182.832 79.6408L182.674 79.798L182.581 79.8853L182.465 79.9784C182.366 80.0588 182.258 80.129 182.145 80.1879L181.953 80.316L181.714 80.4149C181.629 80.4509 181.542 80.4801 181.452 80.5022C181.355 80.5355 181.256 80.5627 181.155 80.5837C180.677 80.6816 180.188 80.7169 179.7 80.6884C178.369 80.5979 177.059 80.3015 175.818 79.8096C174.167 79.1774 172.576 78.3983 171.064 77.4816C169.233 76.379 167.482 75.1479 165.826 73.7976C163.911 72.2586 162.11 70.5839 160.436 68.7865C159.557 67.8379 158.69 66.8252 157.858 65.7543C157.009 64.6587 156.232 63.5098 155.53 62.3147C154.787 61.0829 154.2 59.7632 153.784 58.3862C153.572 57.6765 153.47 56.9385 153.481 56.1979C153.494 55.8245 153.556 55.4545 153.668 55.0979C153.8 54.7372 153.997 54.4038 154.25 54.1143C154.508 53.8378 154.816 53.6126 155.157 53.4508C155.501 53.2978 155.863 53.1921 156.234 53.1366C156.968 53.0432 157.712 53.0609 158.44 53.1889C159.856 53.448 161.234 53.882 162.543 54.481C163.81 55.0432 165.039 55.6887 166.221 56.4132C167.385 57.1116 168.485 57.8566 169.527 58.6306C171.504 60.0889 173.373 61.6877 175.12 63.4147C176.652 64.9099 178.076 66.5125 179.38 68.2104C180.461 69.606 181.413 71.0962 182.226 72.6627C182.859 73.8398 183.305 75.1082 183.547 76.4224C183.629 76.9049 183.648 77.3958 183.606 77.8832C183.597 77.9831 183.581 78.0822 183.559 78.18C183.55 78.2731 183.53 78.3648 183.501 78.4536L183.431 78.7038C183.407 78.7755 183.377 78.8455 183.344 78.9133C183.3 79.0327 183.241 79.1462 183.169 79.2509C183.149 79.298 183.123 79.3429 183.093 79.3848L183.018 79.4837L182.814 79.6467Z" fill="#556C40"/>
<path d="M188.093 66.8894V66.6682V66.546C188.093 66.4994 188.093 66.4529 188.064 66.3947C188.044 66.2694 188.011 66.1465 187.965 66.028C187.965 65.964 187.918 65.8883 187.889 65.8185L187.773 65.5857C187.735 65.5013 187.688 65.4213 187.633 65.3471C187.583 65.2597 187.527 65.1761 187.464 65.0968C187.175 64.7078 186.834 64.3593 186.452 64.0609C185.393 63.2481 184.215 62.6041 182.96 62.1519C181.31 61.5283 179.608 61.0549 177.873 60.7376C175.761 60.3412 173.624 60.0961 171.477 60.0043C169.026 59.8849 166.57 59.9374 164.126 60.1615C162.84 60.2837 161.525 60.4641 160.192 60.7144C158.83 60.9599 157.487 61.2963 156.17 61.7212C154.802 62.1357 153.492 62.7224 152.271 63.4672C151.649 63.8488 151.09 64.3238 150.612 64.8757C150.376 65.1555 150.18 65.467 150.03 65.801C149.886 66.1403 149.807 66.5036 149.797 66.8719C149.809 67.2395 149.886 67.6021 150.024 67.9428C150.177 68.2757 150.372 68.5869 150.606 68.8682C151.087 69.4204 151.648 69.8972 152.271 70.2824C153.493 71.0239 154.803 71.6104 156.17 72.0284C157.488 72.4479 158.832 72.7842 160.192 73.0353C161.525 73.2856 162.84 73.4602 164.126 73.5824C166.57 73.811 169.026 73.8655 171.477 73.7453C173.624 73.6595 175.763 73.4261 177.879 73.0469C179.614 72.7297 181.316 72.2563 182.966 71.6327C184.219 71.1758 185.396 70.5322 186.458 69.7237C186.839 69.4237 187.179 69.0755 187.47 68.6878C187.533 68.6065 187.589 68.5209 187.639 68.4317C187.694 68.3575 187.741 68.2774 187.779 68.1931L187.895 67.9661C187.924 67.8904 187.948 67.8206 187.971 67.7507C188.017 67.6325 188.05 67.5095 188.07 67.3841C188.07 67.3317 188.07 67.2851 188.099 67.2386V67.1164V66.8894C188.099 66.8894 188.099 66.965 188.099 67.1164V67.2386C188.099 67.2851 188.099 67.3317 188.099 67.3899C188.081 67.5151 188.05 67.638 188.006 67.7566C188.006 67.8264 187.959 67.8962 187.93 67.9719L187.819 68.2047C187.778 68.2891 187.732 68.3708 187.68 68.4491C187.628 68.5356 187.572 68.6192 187.511 68.6994C187.222 69.0923 186.881 69.4446 186.498 69.747C185.441 70.5665 184.263 71.2165 183.006 71.6734C181.356 72.304 179.651 72.7832 177.914 73.1051C175.8 73.5029 173.661 73.7518 171.512 73.8501C169.059 73.9744 166.601 73.9238 164.155 73.6988C162.863 73.5766 161.542 73.402 160.209 73.1517C158.845 72.9 157.498 72.5637 156.176 72.1448C154.803 71.7292 153.487 71.1426 152.259 70.3988C151.629 70.0118 151.062 69.531 150.577 68.9729C150.341 68.6845 150.146 68.3654 149.995 68.0243C149.838 67.6768 149.757 67.2998 149.757 66.9185C149.757 66.5371 149.838 66.1601 149.995 65.8127C150.148 65.4727 150.343 65.1539 150.577 64.864C151.067 64.3066 151.638 63.826 152.271 63.4381C153.501 62.6953 154.819 62.1088 156.194 61.6921C157.512 61.2678 158.858 60.9315 160.221 60.6853C161.56 60.435 162.875 60.2604 164.167 60.1382C166.596 59.9019 169.039 59.8377 171.477 59.9461C173.626 60.0433 175.766 60.2942 177.879 60.6969C179.616 61.0158 181.321 61.4931 182.971 62.1228C184.228 62.5797 185.407 63.2297 186.463 64.0492C186.845 64.3531 187.185 64.7052 187.476 65.0968C187.538 65.1781 187.595 65.2636 187.645 65.3529C187.698 65.4305 187.745 65.5122 187.785 65.5973L187.895 65.8243C187.924 65.9 187.948 65.9756 187.971 66.0397C188.015 66.1602 188.046 66.285 188.064 66.4121C188.064 66.4645 188.064 66.5169 188.064 66.5576V66.6857C188.093 66.8137 188.093 66.8894 188.093 66.8894Z" fill="#556C40"/>
<path d="M181.097 51.0183L180.905 50.896L180.8 50.8262C180.758 50.8015 180.713 50.7801 180.667 50.7622C180.556 50.7016 180.439 50.6528 180.317 50.6167C180.248 50.6167 180.178 50.5643 180.102 50.5468L179.852 50.4945C179.762 50.4748 179.67 50.4612 179.578 50.4537C179.477 50.4478 179.376 50.4478 179.276 50.4537C178.79 50.4476 178.305 50.5023 177.832 50.6167C176.544 50.9586 175.316 51.4944 174.189 52.2055C172.685 53.1256 171.269 54.1815 169.958 55.36C168.358 56.7774 166.861 58.3061 165.476 59.9345C163.881 61.7974 162.42 63.7715 161.106 65.8418C160.419 66.9301 159.744 68.0941 159.127 69.2581C158.487 70.4849 157.929 71.7525 157.456 73.0528C156.956 74.394 156.622 75.7915 156.461 77.2141C156.383 77.9405 156.417 78.6744 156.56 79.3908C156.64 79.7494 156.767 80.0958 156.938 80.4209C157.119 80.7419 157.358 81.0262 157.643 81.259C157.939 81.4746 158.272 81.6344 158.626 81.7304C158.982 81.8167 159.348 81.8539 159.715 81.841C160.445 81.8003 161.165 81.6492 161.851 81.3929C163.19 80.8849 164.46 80.2124 165.634 79.3908C166.774 78.609 167.863 77.7536 168.893 76.83C169.905 75.9279 170.854 74.9967 171.739 74.0538C173.413 72.2616 174.959 70.3537 176.366 68.3444C177.599 66.5992 178.707 64.7691 179.683 62.8678C180.496 61.3039 181.166 59.6696 181.685 57.9848C182.092 56.7148 182.302 55.3899 182.308 54.0563C182.306 53.5724 182.24 53.0908 182.11 52.6246C182.11 52.5198 182.046 52.4267 182.017 52.3336C181.988 52.2405 181.953 52.159 181.912 52.0775L181.801 51.8505C181.761 51.7807 181.714 51.7167 181.679 51.6585C181.613 51.5492 181.535 51.4477 181.446 51.3558L181.353 51.2394L181.26 51.158L181.097 51.0066L181.266 51.1521L181.359 51.2336C181.395 51.2678 181.428 51.3048 181.458 51.3442C181.546 51.4369 181.624 51.5383 181.691 51.6468C181.732 51.7108 181.778 51.769 181.819 51.8389L181.93 52.0717C181.974 52.1534 182.011 52.2391 182.04 52.3278C182.069 52.4209 182.11 52.514 182.133 52.6188C182.268 53.0863 182.338 53.5699 182.343 54.0563C182.345 55.3935 182.139 56.7228 181.732 57.9965C181.215 59.6859 180.549 61.3258 179.741 62.8969C178.766 64.8021 177.657 66.6361 176.424 68.3852C175.021 70.4008 173.475 72.3127 171.797 74.1062C170.912 75.0549 169.964 75.9919 168.945 76.894C167.913 77.8192 166.823 78.6765 165.68 79.4606C164.503 80.2884 163.226 80.965 161.88 81.4743C161.187 81.7332 160.459 81.8862 159.72 81.9283C159.345 81.9409 158.969 81.9037 158.603 81.8177C158.238 81.7149 157.895 81.5474 157.59 81.323C157.296 81.0838 157.049 80.7916 156.863 80.4616C156.687 80.1293 156.556 79.7751 156.473 79.4082C156.332 78.6837 156.3 77.9421 156.38 77.2083C156.537 75.7771 156.874 74.3713 157.381 73.0237C157.853 71.7215 158.411 70.452 159.051 69.2232C159.674 68.0127 160.343 66.8603 161.036 65.7661C162.358 63.6967 163.825 61.7227 165.424 59.8588C166.811 58.2307 168.312 56.7039 169.917 55.2901C171.235 54.113 172.657 53.0572 174.166 52.1357C175.298 51.4276 176.533 50.8976 177.826 50.5643C178.3 50.4471 178.787 50.3923 179.276 50.4013C179.38 50.4013 179.479 50.4013 179.578 50.4013C179.672 50.4084 179.766 50.422 179.858 50.4421L180.108 50.4945L180.323 50.5701C180.445 50.608 180.562 50.6588 180.672 50.7215C180.719 50.7393 180.763 50.7608 180.806 50.7855L180.911 50.8611L181.097 51.0183Z" fill="#556C40"/>
<path d="M149.564 74.7987C149.663 74.8981 149.73 75.0247 149.757 75.1623C149.784 75.2999 149.77 75.4425 149.716 75.572C149.662 75.7015 149.571 75.8122 149.455 75.89C149.338 75.9679 149.201 76.0094 149.061 76.0094C148.92 76.0094 148.783 75.9679 148.667 75.89C148.55 75.8122 148.459 75.7015 148.405 75.572C148.351 75.4425 148.337 75.2999 148.364 75.1623C148.391 75.0247 148.458 74.8981 148.557 74.7987C148.623 74.7323 148.702 74.6797 148.788 74.6438C148.874 74.6078 148.967 74.5894 149.061 74.5894C149.154 74.5894 149.247 74.6078 149.333 74.6438C149.42 74.6797 149.498 74.7323 149.564 74.7987Z" fill="#556C40"/>
<path d="M189.717 52.7467C189.718 52.8885 189.677 53.0275 189.599 53.146C189.521 53.2645 189.41 53.3571 189.279 53.4122C189.148 53.4673 189.004 53.4823 188.865 53.4553C188.726 53.4283 188.598 53.3606 188.497 53.2608C188.396 53.1609 188.327 53.0333 188.299 52.8943C188.271 52.7553 188.285 52.6111 188.339 52.4799C188.393 52.3488 188.485 52.2366 188.603 52.1577C188.721 52.0788 188.859 52.0366 189.001 52.0366C189.095 52.0359 189.188 52.0537 189.275 52.089C189.361 52.1244 189.44 52.1765 189.507 52.2425C189.573 52.3085 189.626 52.3871 189.662 52.4736C189.698 52.5601 189.717 52.6529 189.717 52.7467Z" fill="#556C40"/>
<path d="M154.057 77.1384C154.057 77.1741 154.047 77.209 154.027 77.2387C154.007 77.2683 153.979 77.2915 153.946 77.3051C153.913 77.3188 153.877 77.3223 153.842 77.3154C153.807 77.3084 153.774 77.2912 153.749 77.266C153.724 77.2408 153.707 77.2086 153.7 77.1736C153.693 77.1386 153.696 77.1024 153.71 77.0694C153.724 77.0364 153.747 77.0082 153.776 76.9884C153.806 76.9686 153.841 76.958 153.877 76.958C153.925 76.958 153.97 76.977 154.004 77.0109C154.038 77.0447 154.057 77.0906 154.057 77.1384Z" fill="#556C40"/>
<path d="M157.917 57.199C157.917 57.2347 157.906 57.2695 157.886 57.2992C157.866 57.3289 157.838 57.352 157.805 57.3657C157.772 57.3793 157.736 57.3829 157.701 57.3759C157.666 57.369 157.634 57.3518 157.609 57.3266C157.583 57.3013 157.566 57.2692 157.559 57.2342C157.552 57.1992 157.556 57.1629 157.569 57.1299C157.583 57.097 157.606 57.0688 157.636 57.049C157.666 57.0291 157.7 57.0186 157.736 57.0186C157.784 57.0186 157.83 57.0376 157.864 57.0714C157.897 57.1052 157.917 57.1511 157.917 57.199Z" fill="#556C40"/>
<path d="M186.137 66.8894C186.137 66.9373 186.118 66.9831 186.084 67.017C186.051 67.0508 186.005 67.0698 185.957 67.0698C185.909 67.0698 185.863 67.0508 185.829 67.017C185.795 66.9831 185.776 66.9373 185.776 66.8894C185.776 66.8416 185.795 66.7957 185.829 66.7618C185.863 66.728 185.909 66.709 185.957 66.709C186.005 66.709 186.051 66.728 186.084 66.7618C186.118 66.7957 186.137 66.8416 186.137 66.8894Z" fill="#556C40"/>
<path d="M188.652 58.4622C188.652 58.51 188.633 58.5559 188.599 58.5897C188.565 58.6236 188.519 58.6426 188.471 58.6426C188.424 58.6426 188.378 58.6236 188.344 58.5897C188.31 58.5559 188.291 58.51 188.291 58.4622C188.291 58.4143 188.31 58.3684 188.344 58.3346C188.378 58.3007 188.424 58.2817 188.471 58.2817C188.519 58.2817 188.565 58.3007 188.599 58.3346C188.633 58.3684 188.652 58.4143 188.652 58.4622Z" fill="#556C40"/>
<path d="M176.465 70.8645H174.23V58.6948C174.23 57.3164 173.682 55.9945 172.708 55.0198C171.733 54.0451 170.411 53.4976 169.033 53.4976C167.654 53.4976 166.332 54.0451 165.358 55.0198C164.383 55.9945 163.835 57.3164 163.835 58.6948V70.8645H161.583V58.6948C161.583 56.7237 162.366 54.8333 163.76 53.4395C165.154 52.0457 167.044 51.2627 169.015 51.2627C170.986 51.2627 172.877 52.0457 174.27 53.4395C175.664 54.8333 176.447 56.7237 176.447 58.6948L176.465 70.8645Z" fill="#556C40"/>
<g opacity="0.3">
<path d="M176.465 70.8645H174.23V58.6948C174.23 57.3164 173.682 55.9945 172.708 55.0198C171.733 54.0451 170.411 53.4976 169.033 53.4976C167.654 53.4976 166.332 54.0451 165.358 55.0198C164.383 55.9945 163.835 57.3164 163.835 58.6948V70.8645H161.583V58.6948C161.583 56.7237 162.366 54.8333 163.76 53.4395C165.154 52.0457 167.044 51.2627 169.015 51.2627C170.986 51.2627 172.877 52.0457 174.27 53.4395C175.664 54.8333 176.447 56.7237 176.447 58.6948L176.465 70.8645Z" fill="black"/>
</g>
<path d="M177.739 65.4517H160.325C159.602 65.4517 159.016 66.0379 159.016 66.7612V76.9927C159.016 77.7159 159.602 78.3022 160.325 78.3022H177.739C178.462 78.3022 179.048 77.7159 179.048 76.9927V66.7612C179.048 66.0379 178.462 65.4517 177.739 65.4517Z" fill="#556C40"/>
<g opacity="0.3">
<path d="M170.709 70.2067C170.711 69.8942 170.626 69.5873 170.463 69.3205C170.301 69.0538 170.066 68.8378 169.787 68.6971C169.508 68.5564 169.196 68.4965 168.884 68.5242C168.573 68.5518 168.276 68.666 168.026 68.8537C167.776 69.0414 167.584 69.2952 167.47 69.5865C167.357 69.8778 167.328 70.195 167.385 70.5021C167.443 70.8093 167.585 71.0943 167.796 71.3249C168.007 71.5555 168.278 71.7226 168.579 71.8072V74.3098H169.487V71.8072C169.837 71.7106 170.146 71.5018 170.367 71.2128C170.588 70.9238 170.708 70.5704 170.709 70.2067Z" fill="black"/>
</g>
<path d="M160.087 77.0861C160.041 77.0861 160 74.9443 160 72.3021C160 69.6598 160.041 67.5122 160.087 67.5122C160.134 67.5122 160.169 69.654 160.169 72.3021C160.169 74.9502 160.128 77.0861 160.087 77.0861Z" fill="#FAFAFA"/>
<path d="M167.723 72.3483C167.723 72.3483 167.641 72.3483 167.525 72.2377C167.36 72.1149 167.215 71.9678 167.094 71.8012C166.882 71.5269 166.734 71.2086 166.661 70.8696C166.588 70.5307 166.591 70.1797 166.671 69.8422C166.751 69.5048 166.905 69.1894 167.122 68.9191C167.339 68.6489 167.614 68.4306 167.927 68.2801C168.109 68.1824 168.305 68.1137 168.509 68.0764C168.584 68.0624 168.661 68.0624 168.736 68.0764C168.478 68.1637 168.227 68.2687 167.985 68.3907C167.701 68.5474 167.452 68.7618 167.256 69.0201C167.06 69.2784 166.919 69.5748 166.844 69.8905C166.769 70.2061 166.761 70.534 166.82 70.853C166.879 71.172 167.004 71.4752 167.187 71.743C167.349 71.9589 167.528 72.1613 167.723 72.3483Z" fill="#FAFAFA"/>
<path d="M198.773 89.3198H137.098C134.102 89.3198 131.674 91.7483 131.674 94.7441V95.4075C131.674 98.4033 134.102 100.832 137.098 100.832H198.773C201.768 100.832 204.197 98.4033 204.197 95.4075V94.7441C204.197 91.7483 201.768 89.3198 198.773 89.3198Z" fill="#F5F5F5"/>
<path d="M199.302 105.104H137.627C134.632 105.104 132.203 107.532 132.203 110.528V111.191C132.203 114.187 134.632 116.615 137.627 116.615H199.302C202.298 116.615 204.726 114.187 204.726 111.191V110.528C204.726 107.532 202.298 105.104 199.302 105.104Z" fill="#F5F5F5"/>
<path d="M143.134 94.9824V93.3179H143.826V94.9591C143.826 95.5411 144.071 95.7565 144.49 95.7565C144.909 95.7565 145.153 95.5237 145.153 94.9591V93.3179H145.834V94.9824C145.834 95.3405 145.692 95.6839 145.439 95.9372C145.186 96.1904 144.842 96.3326 144.484 96.3326C144.126 96.3326 143.782 96.1904 143.529 95.9372C143.276 95.6839 143.134 95.3405 143.134 94.9824Z" fill="#263238"/>
<path d="M146.247 96.0826L146.462 95.6054C146.704 95.749 146.979 95.8254 147.26 95.8265C147.568 95.8265 147.679 95.7451 147.679 95.617C147.679 95.2445 146.299 95.617 146.299 94.7149C146.299 94.2784 146.689 93.97 147.359 93.97C147.664 93.9651 147.966 94.035 148.238 94.1737L148.016 94.6451C147.816 94.5309 147.589 94.4726 147.359 94.4763C147.062 94.4763 146.934 94.5694 146.934 94.6858C146.934 95.0758 148.313 94.6858 148.313 95.5996C148.313 96.0244 147.923 96.3271 147.236 96.3271C146.891 96.3347 146.549 96.2504 146.247 96.0826Z" fill="#263238"/>
<path d="M150.955 95.3376H149.209C149.245 95.4807 149.331 95.6061 149.452 95.6906C149.573 95.7751 149.72 95.813 149.867 95.7974C149.974 95.8021 150.081 95.785 150.181 95.7469C150.281 95.7089 150.372 95.6508 150.449 95.5762L150.804 95.9604C150.683 96.0859 150.536 96.1836 150.373 96.2469C150.21 96.3102 150.036 96.3375 149.861 96.327C149.697 96.3478 149.53 96.3331 149.371 96.2839C149.213 96.2348 149.066 96.1524 148.942 96.0421C148.818 95.9319 148.719 95.7964 148.652 95.6448C148.585 95.4932 148.55 95.3289 148.552 95.163C148.552 95.0051 148.584 94.8489 148.646 94.7037C148.708 94.5586 148.799 94.4275 148.913 94.3187C149.027 94.2098 149.163 94.1253 149.311 94.0703C149.459 94.0154 149.616 93.9911 149.774 93.999C149.929 93.9951 150.084 94.0224 150.228 94.0791C150.373 94.1359 150.505 94.221 150.616 94.3295C150.727 94.438 150.815 94.5676 150.876 94.7108C150.936 94.8539 150.967 95.0077 150.967 95.163C150.967 95.2096 150.955 95.2794 150.955 95.3376ZM149.209 94.9477H150.333C150.299 94.8244 150.226 94.7155 150.125 94.6379C150.023 94.5604 149.899 94.5183 149.771 94.5183C149.643 94.5183 149.519 94.5604 149.418 94.6379C149.316 94.7155 149.243 94.8244 149.209 94.9477Z" fill="#263238"/>
<path d="M152.853 93.97V94.5869H152.702C152.62 94.5865 152.539 94.6033 152.465 94.6361C152.39 94.6689 152.323 94.7171 152.268 94.7774C152.213 94.8378 152.172 94.909 152.146 94.9865C152.12 95.064 152.111 95.1459 152.12 95.2271V96.3038H151.456V94.0166H152.09V94.2843C152.184 94.1758 152.302 94.0908 152.434 94.0362C152.567 93.9816 152.71 93.959 152.853 93.97Z" fill="#263238"/>
<path d="M155.565 94.9825V96.292H154.902V95.0872C154.902 94.7147 154.733 94.546 154.436 94.546C154.139 94.546 153.889 94.7438 153.889 95.1629V96.292H153.226V94.0047H153.86V94.2841C153.958 94.184 154.076 94.1054 154.206 94.0533C154.337 94.0012 154.476 93.9767 154.617 93.9814C154.748 93.9728 154.88 93.9932 155.002 94.0412C155.125 94.0893 155.235 94.1637 155.326 94.2593C155.416 94.3548 155.485 94.4692 155.526 94.5942C155.568 94.7192 155.581 94.8517 155.565 94.9825Z" fill="#263238"/>
<path d="M158.189 94.9881V96.2918H157.567V96.0299C157.49 96.1412 157.384 96.2297 157.261 96.2861C157.139 96.3424 157.003 96.3645 156.868 96.35C156.333 96.35 156.013 96.0532 156.013 95.6574C156.013 95.2617 156.298 94.9707 156.996 94.9707H157.508C157.508 94.6913 157.34 94.5225 156.979 94.5225C156.742 94.5217 156.511 94.5972 156.321 94.7379L156.083 94.2723C156.377 94.082 156.722 93.9846 157.072 93.9929C157.782 93.9696 158.189 94.2839 158.189 94.9881ZM157.526 95.5701V95.3373H157.072C156.758 95.3373 156.665 95.4537 156.665 95.605C156.665 95.7564 156.804 95.8844 157.037 95.8844C157.139 95.8875 157.238 95.8588 157.323 95.8025C157.407 95.7462 157.472 95.665 157.508 95.5701H157.526Z" fill="#263238"/>
<path d="M162.654 94.9822V96.2917H161.99V95.087C161.99 94.7145 161.827 94.5457 161.559 94.5457C161.292 94.5457 161.053 94.7378 161.053 95.1277V96.2917H160.419V95.087C160.419 94.7145 160.262 94.5457 159.982 94.5457C159.703 94.5457 159.482 94.7378 159.482 95.1277V96.2917H158.789V94.0045H159.423V94.2838C159.513 94.1842 159.624 94.1054 159.748 94.0531C159.871 94.0009 160.005 93.9763 160.139 93.9812C160.287 93.9744 160.434 94.0056 160.567 94.0718C160.699 94.138 160.813 94.2371 160.896 94.3595C160.995 94.2364 161.121 94.1381 161.264 94.0724C161.408 94.0067 161.565 93.9755 161.722 93.9812C161.853 93.9731 161.983 93.9941 162.105 94.0426C162.226 94.0911 162.335 94.1659 162.425 94.2616C162.514 94.3573 162.58 94.4716 162.62 94.5962C162.66 94.7208 162.671 94.8526 162.654 94.9822Z" fill="#263238"/>
<path d="M165.505 95.3376H163.759C163.789 95.4829 163.873 95.6113 163.994 95.6967C164.115 95.7822 164.264 95.8182 164.411 95.7974C164.518 95.8018 164.625 95.7845 164.725 95.7464C164.825 95.7084 164.916 95.6505 164.993 95.5762L165.342 95.9604C165.221 96.0865 165.074 96.1847 164.911 96.248C164.749 96.3113 164.574 96.3383 164.399 96.327C164.235 96.3469 164.069 96.3315 163.911 96.282C163.753 96.2324 163.608 96.1498 163.484 96.0397C163.361 95.9296 163.263 95.7944 163.196 95.6433C163.129 95.4921 163.095 95.3284 163.096 95.163C163.096 95.0051 163.127 94.8489 163.19 94.7037C163.252 94.5586 163.343 94.4275 163.457 94.3187C163.571 94.2098 163.707 94.1253 163.855 94.0703C164.003 94.0154 164.16 93.9911 164.318 93.999C164.627 93.999 164.923 94.1216 165.141 94.3399C165.359 94.5582 165.482 94.8543 165.482 95.163C165.517 95.2096 165.511 95.2794 165.505 95.3376ZM163.759 94.9477H164.888C164.869 94.8098 164.799 94.6843 164.691 94.5968C164.582 94.5092 164.445 94.4661 164.306 94.4763C164.174 94.4739 164.045 94.5208 163.945 94.6078C163.845 94.6949 163.781 94.816 163.765 94.9477H163.759Z" fill="#263238"/>
<path d="M169.894 95.1279C169.894 95.8903 169.545 96.3268 169.021 96.3268C168.897 96.3351 168.774 96.3033 168.669 96.2363C168.564 96.1693 168.484 96.0705 168.439 95.9543C168.362 96.0754 168.254 96.1738 168.126 96.2392C167.998 96.3047 167.855 96.3349 167.712 96.3268C167.445 96.2991 167.199 96.1737 167.02 95.9749C166.84 95.776 166.741 95.5178 166.741 95.2501C166.741 94.9824 166.84 94.7242 167.02 94.5254C167.199 94.3265 167.445 94.2012 167.712 94.1734C167.835 94.1677 167.958 94.1904 168.071 94.2399C168.184 94.2894 168.284 94.3642 168.363 94.4586V94.2083H168.945V95.5819C168.945 95.7856 169.033 95.8554 169.149 95.8554C169.266 95.8554 169.463 95.6284 169.463 95.1396C169.466 94.9365 169.426 94.7351 169.345 94.5486C169.265 94.362 169.146 94.1944 168.997 94.0567C168.848 93.919 168.671 93.8141 168.479 93.749C168.287 93.6839 168.083 93.66 167.88 93.6787C167.471 93.6787 167.079 93.8412 166.79 94.1305C166.501 94.4197 166.338 94.812 166.338 95.221C166.338 95.6301 166.501 96.0224 166.79 96.3116C167.079 96.6008 167.471 96.7633 167.88 96.7633C168.17 96.763 168.456 96.6994 168.718 96.5771L168.852 96.967C168.548 97.1064 168.216 97.176 167.88 97.1707C167.616 97.1852 167.351 97.1456 167.102 97.0543C166.853 96.963 166.626 96.8219 166.433 96.6397C166.241 96.4575 166.088 96.238 165.983 95.9946C165.878 95.7512 165.824 95.489 165.824 95.2239C165.824 94.9589 165.878 94.6967 165.983 94.4533C166.088 94.2099 166.241 93.9904 166.433 93.8082C166.626 93.626 166.853 93.4849 167.102 93.3936C167.351 93.3023 167.616 93.2627 167.88 93.2772C168.136 93.2563 168.394 93.2886 168.637 93.3721C168.88 93.4555 169.103 93.5883 169.292 93.7622C169.481 93.936 169.632 94.147 169.736 94.3821C169.839 94.6171 169.893 94.871 169.894 95.1279ZM168.375 95.2501C168.383 95.1756 168.376 95.1002 168.352 95.0289C168.329 94.9577 168.291 94.8923 168.24 94.8371C168.189 94.7819 168.127 94.7383 168.058 94.7091C167.989 94.68 167.915 94.666 167.84 94.6681C167.685 94.6681 167.537 94.7295 167.428 94.8386C167.319 94.9477 167.258 95.0958 167.258 95.2501C167.258 95.4045 167.319 95.5525 167.428 95.6617C167.537 95.7708 167.685 95.8321 167.84 95.8321C167.915 95.8343 167.989 95.8203 168.058 95.7911C168.127 95.762 168.189 95.7184 168.24 95.6632C168.291 95.608 168.329 95.5426 168.352 95.4713C168.376 95.4001 168.383 95.3246 168.375 95.2501Z" fill="#263238"/>
<path d="M174.23 94.9826V96.2921H173.566V95.0874C173.566 94.7149 173.403 94.5461 173.136 94.5461C172.868 94.5461 172.629 94.7382 172.629 95.1281V96.2921H171.966V95.0874C171.966 94.7149 171.809 94.5461 171.529 94.5461C171.25 94.5461 171.029 94.7382 171.029 95.1281V96.2921H170.365V94.0048H171V94.2842C171.09 94.1845 171.2 94.1058 171.324 94.0535C171.448 94.0012 171.581 93.9767 171.715 93.9816C171.863 93.9748 172.011 94.006 172.143 94.0722C172.275 94.1384 172.389 94.2375 172.472 94.3599C172.57 94.2372 172.695 94.1392 172.838 94.0735C172.98 94.0078 173.136 93.9763 173.293 93.9816C173.424 93.9726 173.555 93.9929 173.677 94.041C173.799 94.0891 173.909 94.1638 173.999 94.2596C174.089 94.3554 174.156 94.47 174.196 94.5951C174.236 94.7201 174.247 94.8525 174.23 94.9826Z" fill="#263238"/>
<path d="M176.849 94.9881V96.2918H176.232V96.0299C176.155 96.1412 176.049 96.2297 175.927 96.2861C175.804 96.3424 175.668 96.3645 175.533 96.35C174.998 96.35 174.678 96.0532 174.678 95.6574C174.678 95.2617 174.963 94.9707 175.661 94.9707H176.185C176.185 94.6913 176.016 94.5225 175.661 94.5225C175.424 94.5195 175.193 94.5953 175.004 94.7379L174.765 94.2723C175.058 94.0831 175.4 93.9858 175.749 93.9929C176.447 93.9696 176.849 94.2839 176.849 94.9881ZM176.185 95.5701V95.3373H175.731C175.423 95.3373 175.324 95.4537 175.324 95.605C175.324 95.7564 175.463 95.8844 175.696 95.8844C175.801 95.8912 175.904 95.8644 175.992 95.8078C176.08 95.7512 176.148 95.6679 176.185 95.5701Z" fill="#263238"/>
<path d="M177.372 93.3179C177.373 93.2657 177.384 93.2141 177.406 93.1665C177.427 93.1188 177.458 93.0762 177.497 93.0412C177.536 93.0062 177.582 92.9796 177.631 92.9631C177.681 92.9466 177.733 92.9406 177.785 92.9455C177.857 92.9533 177.924 92.9817 177.98 93.0271C178.036 93.0725 178.077 93.133 178.099 93.2014C178.121 93.2697 178.123 93.343 178.104 93.4124C178.086 93.4818 178.047 93.5443 177.994 93.5924C177.941 93.6405 177.874 93.6721 177.804 93.6835C177.733 93.6949 177.66 93.6855 177.594 93.6565C177.528 93.6275 177.473 93.5801 177.433 93.52C177.394 93.46 177.373 93.3898 177.372 93.3179ZM177.454 94.0047H178.111V96.292H177.454V94.0047Z" fill="#263238"/>
<path d="M178.734 93.1201H179.398V96.2746H178.734V93.1201Z" fill="#263238"/>
<path d="M179.852 95.9137C179.852 95.8041 179.895 95.699 179.973 95.6215C180.05 95.544 180.155 95.5005 180.265 95.5005C180.374 95.5005 180.479 95.544 180.557 95.6215C180.634 95.699 180.678 95.8041 180.678 95.9137C180.678 96.0233 180.634 96.1284 180.557 96.2059C180.479 96.2834 180.374 96.3269 180.265 96.3269C180.155 96.3269 180.05 96.2834 179.973 96.2059C179.895 96.1284 179.852 96.0233 179.852 95.9137Z" fill="#263238"/>
<path d="M180.928 95.1512C180.928 94.9886 180.961 94.8276 181.026 94.6786C181.091 94.5297 181.187 94.3961 181.307 94.2864C181.427 94.1768 181.569 94.0935 181.723 94.0419C181.878 93.9904 182.041 93.9717 182.203 93.9872C182.412 93.9695 182.622 94.0156 182.805 94.1195C182.988 94.2234 183.135 94.3801 183.227 94.5692L182.715 94.8427C182.656 94.756 182.576 94.6859 182.482 94.6392C182.388 94.5925 182.284 94.5707 182.179 94.5759C182.074 94.5811 181.973 94.6132 181.884 94.6691C181.795 94.7249 181.722 94.8026 181.672 94.8948C181.622 94.9869 181.597 95.0904 181.599 95.1952C181.6 95.3 181.629 95.4027 181.681 95.4933C181.734 95.584 181.809 95.6595 181.899 95.7128C181.99 95.766 182.092 95.7951 182.197 95.7972C182.304 95.7974 182.409 95.7682 182.5 95.7128C182.591 95.6574 182.666 95.5778 182.715 95.4829L183.227 95.7623C183.134 95.9503 182.986 96.1062 182.804 96.2099C182.621 96.3136 182.412 96.3604 182.203 96.3443C182.038 96.3601 181.873 96.3407 181.716 96.2874C181.56 96.2341 181.417 96.1482 181.296 96.0354C181.176 95.9226 181.081 95.7853 181.017 95.6329C180.954 95.4805 180.923 95.3163 180.928 95.1512Z" fill="#263238"/>
<path d="M183.414 95.151C183.395 94.8993 183.452 94.6477 183.579 94.4291C183.705 94.2105 183.894 94.035 184.122 93.9254C184.349 93.8158 184.604 93.7772 184.854 93.8147C185.104 93.8522 185.336 93.964 185.521 94.1355C185.707 94.307 185.836 94.5303 185.892 94.7764C185.949 95.0224 185.93 95.2798 185.838 95.515C185.747 95.7501 185.586 95.9522 185.378 96.0949C185.17 96.2376 184.923 96.3143 184.671 96.315C184.51 96.3279 184.349 96.3073 184.197 96.2546C184.044 96.2019 183.905 96.1182 183.787 96.0088C183.669 95.8994 183.574 95.7667 183.51 95.6191C183.446 95.4714 183.413 95.312 183.414 95.151ZM185.253 95.151C185.243 95.0387 185.2 94.9317 185.13 94.8432C185.06 94.7546 184.966 94.6882 184.86 94.6521C184.753 94.6159 184.638 94.6116 184.528 94.6397C184.419 94.6677 184.32 94.7268 184.244 94.8099C184.168 94.8931 184.118 94.9965 184.099 95.1078C184.08 95.219 184.095 95.3332 184.14 95.4366C184.185 95.5399 184.259 95.6279 184.353 95.6898C184.448 95.7517 184.558 95.7849 184.671 95.7854C184.752 95.7857 184.832 95.7691 184.906 95.7367C184.981 95.7042 185.047 95.6566 185.102 95.5969C185.157 95.5371 185.198 95.4666 185.224 95.3899C185.25 95.3131 185.26 95.2317 185.253 95.151Z" fill="#263238"/>
<path d="M190.235 94.9826V96.2921H189.571V95.0874C189.571 94.7149 189.402 94.5461 189.135 94.5461C188.867 94.5461 188.628 94.7382 188.628 95.1281V96.2921H187.965V95.0874C187.965 94.7149 187.808 94.5461 187.534 94.5461C187.261 94.5461 187.034 94.7382 187.034 95.1281V96.2921H186.37V94.0048H186.999V94.2842C187.09 94.1844 187.202 94.1056 187.326 94.0534C187.451 94.0011 187.585 93.9766 187.72 93.9816C187.868 93.9741 188.014 94.005 188.146 94.0714C188.277 94.1377 188.39 94.2371 188.471 94.3599C188.57 94.2375 188.697 94.1396 188.84 94.074C188.983 94.0084 189.14 93.9768 189.298 93.9816C189.429 93.9726 189.56 93.9929 189.682 94.041C189.804 94.0891 189.914 94.1638 190.004 94.2596C190.093 94.3554 190.161 94.47 190.201 94.5951C190.241 94.7201 190.252 94.8525 190.235 94.9826Z" fill="#263238"/>
<path d="M152.02 110.923L153.097 111.505L152.614 112.314L151.525 111.674V112.873H150.594V111.663L149.541 112.326L149.063 111.517L150.146 110.935L149.063 110.353L149.541 109.544L150.629 110.196V108.991H151.56V110.196L152.649 109.544L153.132 110.353L152.02 110.923Z" fill="#263238"/>
<path d="M156.507 110.923L157.584 111.505L157.101 112.326L156.013 111.686V112.885H155.087V111.674L154.016 112.326L153.539 111.517L154.616 110.935L153.539 110.353L154.016 109.544L155.105 110.196V108.991H156.03V110.196L157.118 109.544L157.601 110.353L156.507 110.923Z" fill="#263238"/>
<path d="M161 110.923L162.077 111.505L161.582 112.326L160.5 111.686V112.885H159.569V111.674L158.51 112.326L158.038 111.517L159.115 110.935L158.038 110.353L158.51 109.544L159.598 110.196V108.991H160.529V110.196L161.612 109.544L162.1 110.353L161 110.923Z" fill="#263238"/>
<path d="M165.476 110.923L166.553 111.505L166.07 112.314L164.981 111.674V112.873H164.05V111.663L162.997 112.326L162.52 111.517L163.602 110.935L162.52 110.353L162.997 109.544L164.085 110.196V108.991H165.016V110.196L166.105 109.544L166.588 110.353L165.476 110.923Z" fill="#263238"/>
<path d="M169.963 110.923L171.04 111.505L170.557 112.314L169.469 111.674V112.873H168.567V111.662L167.484 112.326L167.007 111.517L168.084 110.935L167.007 110.353L167.484 109.544L168.567 110.173V108.968H169.492V110.173L170.58 109.521L171.063 110.33L169.963 110.923Z" fill="#263238"/>
<path d="M174.451 110.923L175.527 111.505L175.044 112.314L173.956 111.674V112.873H173.025V111.663L171.966 112.326L171.494 111.517L172.571 110.935L171.494 110.353L171.966 109.544L173.054 110.196V108.991H173.985V110.196L175.073 109.544L175.557 110.353L174.451 110.923Z" fill="#263238"/>
<path d="M178.932 110.923L180.009 111.505L179.526 112.314L178.437 111.674V112.873H177.506V111.663L176.453 112.326L175.976 111.517L177.058 110.935L175.976 110.353L176.453 109.544L177.541 110.196V108.991H178.461V110.196L179.549 109.544L180.032 110.353L178.932 110.923Z" fill="#263238"/>
<path d="M183.419 110.923L184.496 111.505L184.013 112.314L182.925 111.674V112.873H181.999V111.663L180.94 112.326L180.463 111.517L181.54 110.935L180.463 110.353L180.94 109.544L182.028 110.196V108.991H182.954V110.196L184.042 109.544L184.525 110.353L183.419 110.923Z" fill="#263238"/>
<path d="M130.563 78.7734H85.2255C84.9154 78.7734 84.6084 78.8346 84.3221 78.9534C84.0357 79.0722 83.7756 79.2464 83.5567 79.4659C83.3377 79.6854 83.1642 79.9459 83.0461 80.2325C82.928 80.5192 82.8676 80.8263 82.8683 81.1364V101.786C82.8644 102.096 82.9227 102.405 83.0398 102.692C83.1569 102.98 83.3304 103.241 83.55 103.461C83.7697 103.681 84.0311 103.854 84.3188 103.971C84.6066 104.088 84.9148 104.147 85.2255 104.143H104.245L108.284 109.328L111.654 104.143H130.563C130.873 104.143 131.179 104.082 131.465 103.963C131.751 103.845 132.011 103.671 132.23 103.452C132.449 103.234 132.622 102.974 132.741 102.688C132.859 102.402 132.92 102.095 132.92 101.786V81.1364C132.92 80.5107 132.672 79.9105 132.23 79.4676C131.788 79.0246 131.189 78.775 130.563 78.7734Z" fill="white"/>
<path d="M130.563 78.7737H130.784C131.005 78.7928 131.222 78.8417 131.43 78.9192C131.77 79.041 132.077 79.2403 132.326 79.5012C132.683 79.8849 132.902 80.3762 132.949 80.898C132.996 83.1445 132.984 86.4153 133.001 90.5592C133.001 92.6311 133.001 94.9183 133.001 97.3977C133.001 98.6431 133.001 99.9294 133.001 101.268C133.017 101.61 133.002 101.953 132.955 102.292C132.883 102.645 132.737 102.979 132.524 103.27C132.306 103.569 132.025 103.814 131.699 103.99C131.374 104.165 131.013 104.265 130.644 104.283H111.625L111.741 104.225C110.682 105.848 109.541 107.612 108.377 109.404L108.266 109.573L108.138 109.416L104.099 104.236L104.216 104.294H85.9235C85.5918 104.294 85.2833 104.294 84.9283 104.294C84.4118 104.233 83.927 104.013 83.5404 103.665C83.1538 103.317 82.8844 102.858 82.7691 102.35C82.7111 102.024 82.6896 101.692 82.7051 101.361V92.8348C82.7051 90.3555 82.7051 87.9246 82.7051 85.5423V81.1366C82.7053 80.8299 82.7625 80.526 82.8738 80.2403C83.0896 79.6724 83.5029 79.2013 84.0378 78.9133C84.3051 78.7767 84.595 78.6899 84.8934 78.6573C85.1803 78.6429 85.4678 78.6429 85.7547 78.6573H90.7076H96.9815H108.237L124.533 78.7038L128.962 78.7329L124.533 78.762L108.237 78.8086H96.9815H85.8013C85.5219 78.8086 85.2193 78.8086 84.969 78.8086C84.7046 78.8389 84.4481 78.9178 84.2124 79.0414C83.7311 79.2879 83.3565 79.7019 83.159 80.2054C83.0592 80.4594 83.0078 80.7298 83.0077 81.0027V81.8757C83.0077 83.0397 83.0077 84.2037 83.0077 85.4085V92.7009C83.0077 95.1764 83.0077 97.6984 83.0077 100.267V101.233C82.9893 101.542 83.0069 101.853 83.0601 102.158C83.1626 102.604 83.4006 103.007 83.7413 103.313C84.082 103.618 84.5088 103.81 84.9632 103.864C85.26 103.893 85.6034 103.864 85.9235 103.864H104.315L104.361 103.922L108.4 109.102H108.162L111.532 103.922L111.572 103.858H111.654H130.662C130.997 103.847 131.324 103.759 131.62 103.602C131.915 103.444 132.171 103.221 132.367 102.95C132.564 102.689 132.699 102.386 132.763 102.065C132.808 101.739 132.823 101.41 132.809 101.082C132.809 99.7431 132.809 98.4569 132.809 97.2114C132.809 94.7321 132.809 92.4448 132.809 90.3729C132.809 86.2407 132.809 82.9699 132.839 80.7175C132.787 80.2307 132.583 79.7725 132.257 79.408C132.018 79.1411 131.721 78.9321 131.389 78.7969C131.116 78.7499 130.838 78.7421 130.563 78.7737Z" fill="#263238"/>
<path d="M99.4031 84.6054V85.3678H98.9084V84.5996L98.0703 83.2261H98.5999L99.1819 84.1806L99.7639 83.2261H100.253L99.4031 84.6054Z" fill="#263238"/>
<path d="M100.229 84.2911C100.218 84.0589 100.278 83.8289 100.399 83.6308C100.52 83.4326 100.698 83.2753 100.91 83.1791C101.121 83.0829 101.357 83.0522 101.586 83.0911C101.815 83.1299 102.027 83.2364 102.195 83.3969C102.364 83.5574 102.48 83.7646 102.529 83.9917C102.578 84.2188 102.559 84.4554 102.472 84.6712C102.386 84.887 102.237 85.0719 102.045 85.2023C101.852 85.3327 101.625 85.4025 101.393 85.4027C101.242 85.4098 101.092 85.3863 100.951 85.3336C100.81 85.2809 100.681 85.2002 100.573 85.0962C100.464 84.9923 100.377 84.8673 100.318 84.7289C100.259 84.5905 100.229 84.4416 100.229 84.2911ZM102.079 84.2911C102.078 84.1578 102.038 84.0279 101.963 83.9176C101.888 83.8074 101.782 83.7217 101.659 83.6715C101.535 83.6213 101.4 83.6088 101.269 83.6355C101.139 83.6622 101.019 83.7269 100.925 83.8216C100.831 83.9162 100.767 84.0365 100.742 84.1673C100.716 84.2981 100.73 84.4336 100.781 84.5566C100.832 84.6796 100.919 84.7847 101.03 84.8586C101.141 84.9326 101.271 84.972 101.404 84.972C101.494 84.9745 101.584 84.9585 101.667 84.9251C101.75 84.8916 101.826 84.8415 101.889 84.7777C101.953 84.7138 102.002 84.6377 102.035 84.5541C102.067 84.4704 102.083 84.3809 102.079 84.2911Z" fill="#263238"/>
<path d="M102.947 84.4192V83.2261H103.448V84.3901C103.448 84.7975 103.628 84.9721 103.925 84.9721C104.222 84.9721 104.408 84.8033 104.408 84.3901V83.2261H104.903V84.4308C104.903 84.6901 104.8 84.9388 104.616 85.1222C104.433 85.3056 104.184 85.4086 103.925 85.4086C103.666 85.4086 103.417 85.3056 103.234 85.1222C103.05 84.9388 102.947 84.6901 102.947 84.4308V84.4192Z" fill="#263238"/>
<path d="M106.771 85.3678L106.358 84.7858H105.898V85.3678H105.397V83.2261H106.329C106.911 83.2261 107.266 83.5229 107.266 84.006C107.272 84.1514 107.233 84.2952 107.154 84.4173C107.074 84.5394 106.959 84.6337 106.823 84.6869L107.306 85.3795L106.771 85.3678ZM106.305 83.6218H105.898V84.3901H106.305C106.608 84.3901 106.759 84.2446 106.759 84.0118C106.759 83.779 106.608 83.616 106.294 83.616L106.305 83.6218Z" fill="#263238"/>
<path d="M108.4 84.2909C108.402 84.0522 108.478 83.8199 108.616 83.6254C108.754 83.4309 108.949 83.2837 109.174 83.2036C109.399 83.1236 109.643 83.1146 109.873 83.1779C110.103 83.2412 110.308 83.3738 110.461 83.5576L110.141 83.8544C110.075 83.7732 109.991 83.7079 109.896 83.6636C109.802 83.6192 109.698 83.5969 109.593 83.5983C109.422 83.6141 109.262 83.6936 109.145 83.8212C109.029 83.9488 108.964 84.1153 108.964 84.288C108.964 84.4607 109.029 84.6272 109.145 84.7548C109.262 84.8824 109.422 84.9619 109.593 84.9777C109.698 84.9802 109.801 84.959 109.896 84.9156C109.991 84.8723 110.074 84.8079 110.141 84.7274L110.461 85.0184C110.309 85.2019 110.104 85.3343 109.875 85.3978C109.645 85.4612 109.401 85.4528 109.177 85.3734C108.952 85.2941 108.757 85.1478 108.618 84.9542C108.48 84.7606 108.403 84.5291 108.4 84.2909Z" fill="#263238"/>
<path d="M110.617 84.2911C110.607 84.0589 110.666 83.8289 110.788 83.6308C110.909 83.4326 111.087 83.2753 111.298 83.1791C111.51 83.0829 111.746 83.0522 111.975 83.0911C112.204 83.1299 112.416 83.2364 112.584 83.3969C112.752 83.5574 112.868 83.7646 112.918 83.9917C112.967 84.2188 112.947 84.4554 112.861 84.6712C112.775 84.887 112.626 85.0719 112.433 85.2023C112.241 85.3327 112.014 85.4025 111.781 85.4027C111.631 85.4098 111.481 85.3863 111.34 85.3336C111.199 85.2809 111.07 85.2002 110.961 85.0962C110.852 84.9923 110.766 84.8673 110.707 84.7289C110.648 84.5905 110.617 84.4416 110.617 84.2911ZM112.468 84.2911C112.466 84.1581 112.424 84.0287 112.349 83.9192C112.273 83.8098 112.167 83.725 112.043 83.6757C111.92 83.6264 111.785 83.6147 111.654 83.642C111.524 83.6694 111.405 83.7346 111.312 83.8294C111.218 83.9243 111.155 84.0446 111.13 84.1752C111.105 84.3059 111.119 84.441 111.17 84.5637C111.222 84.6864 111.308 84.7912 111.419 84.8648C111.53 84.9385 111.66 84.9778 111.793 84.9778C111.883 84.9803 111.973 84.9642 112.057 84.9304C112.141 84.8966 112.217 84.8459 112.28 84.7815C112.343 84.717 112.393 84.6402 112.425 84.5559C112.458 84.4715 112.472 84.3814 112.468 84.2911Z" fill="#263238"/>
<path d="M113.354 83.226H114.337C114.488 83.2103 114.64 83.2265 114.784 83.2734C114.929 83.3204 115.061 83.3971 115.174 83.4986C115.287 83.6001 115.377 83.7242 115.438 83.8627C115.5 84.0012 115.532 84.1511 115.532 84.3027C115.532 84.4544 115.5 84.6043 115.438 84.7428C115.377 84.8813 115.287 85.0053 115.174 85.1069C115.061 85.2084 114.929 85.2851 114.784 85.332C114.64 85.379 114.488 85.3951 114.337 85.3794H113.354V83.226ZM114.308 84.972C114.486 84.972 114.656 84.9015 114.781 84.776C114.907 84.6505 114.977 84.4802 114.977 84.3027C114.977 84.1252 114.907 83.955 114.781 83.8295C114.656 83.704 114.486 83.6334 114.308 83.6334H113.86V84.972H114.308Z" fill="#263238"/>
<path d="M117.573 84.9721V85.3737H115.902V83.2261H117.532V83.6218H116.397V84.0933H117.398V84.4832H116.397V84.9721H117.573Z" fill="#263238"/>
<path d="M126.14 87.6318H89.654C88.5129 87.6318 87.5879 88.5569 87.5879 89.6979V97.4036C87.5879 98.5447 88.5129 99.4697 89.654 99.4697H126.14C127.281 99.4697 128.206 98.5447 128.206 97.4036V89.6979C128.206 88.5569 127.281 87.6318 126.14 87.6318Z" fill="#F5F5F5"/>
<path d="M95.8172 94.284C95.8183 94.5276 95.7683 94.7688 95.6706 94.992C95.5728 95.2152 95.4294 95.4155 95.2496 95.58C95.0698 95.7444 94.8576 95.8694 94.6266 95.9469C94.3956 96.0244 94.1509 96.0527 93.9083 96.03C92.4067 96.03 91.6094 94.9474 91.6094 93.1549C91.6094 91.211 92.6395 90.2158 94.1585 90.2158C94.6093 90.1962 95.0572 90.2966 95.4564 90.5068L95.2876 90.8443C94.9424 90.6552 94.5518 90.5646 94.1585 90.5824C92.8723 90.5824 92.0284 91.4263 92.0284 93.0909C92.0266 93.3206 92.0422 93.5502 92.075 93.7776C92.2117 93.4113 92.464 93.0996 92.7937 92.8895C93.1235 92.6795 93.5127 92.5826 93.9025 92.6136C95.0723 92.5729 95.8172 93.2422 95.8172 94.284ZM95.3982 94.284C95.3982 93.4633 94.8162 92.9337 93.8443 92.9337C93.6491 92.9137 93.4518 92.9337 93.2647 92.9925C93.0775 93.0513 92.9042 93.1477 92.7555 93.2757C92.6068 93.4037 92.4858 93.5607 92.3998 93.737C92.3138 93.9134 92.2647 94.1054 92.2554 94.3014C92.2554 94.9707 92.8374 95.6458 93.8966 95.6458C94.0888 95.67 94.284 95.6526 94.4689 95.595C94.6539 95.5374 94.8243 95.4408 94.9688 95.3117C95.1133 95.1827 95.2285 95.0242 95.3065 94.8469C95.3846 94.6696 95.4238 94.4777 95.4215 94.284H95.3982Z" fill="#556C40"/>
<path d="M103.447 94.3772H102.249V95.9661H101.835V94.3772H98.5703V94.0746L101.684 90.2334H102.15L99.0941 94.0048H101.847V92.608H102.249V94.0048H103.447V94.3772Z" fill="#556C40"/>
<path d="M109.815 94.348C109.815 95.3025 109.128 96.0067 107.807 96.0067C107.435 96.021 107.065 95.9598 106.717 95.8268C106.37 95.6937 106.054 95.4916 105.787 95.2326L105.997 94.9125C106.234 95.1471 106.518 95.3305 106.829 95.4516C107.14 95.5727 107.473 95.6289 107.807 95.6167C108.837 95.6167 109.39 95.1279 109.39 94.348C109.39 93.5681 108.866 93.0792 107.719 93.0792H107.359V92.7766L109.052 90.6057H105.997V90.21H109.593V90.501L107.847 92.7067C109.203 92.7591 109.815 93.4168 109.815 94.348Z" fill="#556C40"/>
<path d="M116.769 90.21V90.501L114.307 95.9427H113.847L116.286 90.5824H113.068V91.6824H112.66V90.21H116.769Z" fill="#556C40"/>
<path d="M119.68 93.12C119.68 91.3274 120.605 90.21 121.92 90.21C123.236 90.21 124.167 91.3216 124.167 93.12C124.167 94.9183 123.242 96.03 121.92 96.03C120.599 96.03 119.68 94.866 119.68 93.12ZM123.754 93.12C123.754 91.5253 123.009 90.5999 121.926 90.5999C120.844 90.5999 120.099 91.5253 120.099 93.12C120.099 94.7146 120.844 95.64 121.926 95.64C123.009 95.64 123.754 94.6914 123.754 93.12Z" fill="#556C40"/>
<path d="M41.4634 272.702H36.2545L34.3223 249.242H40.4565L41.4634 272.702Z" fill="#263238"/>
<path d="M86.627 272.702H91.8359L93.7681 249.242H87.6338L86.627 272.702Z" fill="#263238"/>
<path d="M97.3476 252.216L30.2779 253.787L28.2409 210.469C28.1928 209.464 28.3493 208.46 28.7009 207.517C29.0524 206.574 29.5917 205.713 30.2861 204.985C30.9805 204.256 31.8154 203.677 32.7404 203.281C33.6654 202.885 34.6611 202.681 35.6672 202.682H92.8138C93.8337 202.682 94.8428 202.891 95.7782 203.298C96.7136 203.704 97.5555 204.299 98.2514 205.044C98.9474 205.79 99.4825 206.671 99.8236 207.632C100.165 208.593 100.305 209.614 100.234 210.632L97.3476 252.216Z" fill="#556C40"/>
<path d="M100.788 210.323H100.601H100.048L97.9357 210.358H90.1602C83.5952 210.358 74.5277 210.3 64.5173 210.532C54.5011 210.864 45.4219 210.806 38.8627 210.707C35.5802 210.655 32.9205 210.591 31.0872 210.532L28.9745 210.463H28.4275C28.3656 210.471 28.303 210.471 28.2412 210.463H28.4275H28.9745H31.0872L38.8627 210.538C45.4277 210.585 54.4952 210.608 64.5115 210.271C74.5277 210.044 83.5952 210.148 90.1602 210.195L97.9357 210.259L100.048 210.288H100.601L100.788 210.323Z" fill="#263238"/>
<path d="M52.702 203.356C51.1944 203.577 49.7276 204.018 48.3486 204.666C47.0133 205.401 45.7951 206.33 44.7344 207.425C44.948 207.019 45.2295 206.653 45.5666 206.342C47.1137 204.751 49.1435 203.715 51.3401 203.397C51.7881 203.304 52.2491 203.29 52.702 203.356Z" fill="#263238"/>
<path d="M80.2892 124.595L88.4837 139.57L100.473 132.853L106.293 134.78C106.293 134.78 91.6032 150.738 89.2112 151.57C86.8192 152.403 82.2912 152.537 79.7072 149.295C77.3792 146.344 70.4883 130.863 70.4883 130.863L80.2892 124.595Z" fill="#FFBE9D"/>
<path d="M114.039 114.817C113.934 114.688 113.797 114.588 113.642 114.527C113.487 114.466 113.319 114.445 113.154 114.468L107.456 115.236C107.209 115.273 106.972 115.363 106.762 115.5C106.552 115.636 106.374 115.816 106.24 116.028L94.3613 134.273L95.2692 134.78L101.59 134.582L114.219 115.044L114.039 114.817Z" fill="#263238"/>
<path d="M109.995 117.186C110.04 117.258 110.107 117.314 110.187 117.346C110.266 117.378 110.353 117.384 110.436 117.364C110.519 117.344 110.593 117.298 110.649 117.233C110.704 117.168 110.738 117.087 110.745 117.002C110.752 116.917 110.732 116.832 110.689 116.759C110.645 116.685 110.579 116.628 110.5 116.594C110.422 116.56 110.335 116.552 110.251 116.571C110.168 116.589 110.092 116.633 110.035 116.697C109.968 116.758 109.927 116.843 109.919 116.933C109.912 117.024 109.939 117.114 109.995 117.186Z" fill="white"/>
<path d="M114.22 115.044C113.858 115.145 113.488 115.217 113.114 115.259L110.088 115.731L107.998 116.033C107.821 116.049 107.65 116.104 107.497 116.195C107.343 116.286 107.213 116.409 107.114 116.557L106.438 117.605C105.501 119.042 104.483 120.62 103.412 122.261C101.253 125.567 99.2856 128.552 97.8422 130.706L96.1254 133.278C95.9257 133.597 95.702 133.901 95.4561 134.186C95.62 133.843 95.8148 133.516 96.0381 133.208L97.6676 130.612C99.0586 128.424 100.991 125.421 103.15 122.115C104.233 120.468 105.263 118.897 106.2 117.459C106.438 117.104 106.671 116.755 106.892 116.412C107.016 116.233 107.178 116.085 107.366 115.976C107.555 115.867 107.764 115.801 107.981 115.783L110.082 115.515L113.126 115.155C113.487 115.089 113.853 115.052 114.22 115.044Z" fill="#455A64"/>
<path d="M107.882 121.556C107.882 121.556 107.375 121.469 107.096 122.86C106.817 124.251 105.932 128.244 105.932 128.244L103.267 126.829L99.9258 127.266C99.9258 127.266 99.1983 127.935 99.7338 128.302C100.269 128.668 102.376 129.041 102.376 129.041L103.93 131.282L99.4661 129.128C99.4661 129.128 97.9761 129.518 98.4126 130.426C98.8491 131.334 101.858 134.18 101.858 134.18L99.6232 134.011L96.9809 132.393C96.9809 132.393 96.1661 132.434 96.4688 133.127C96.7714 133.819 99.5417 136.333 99.5417 136.333L102.894 137.963C102.894 137.963 104.727 137.817 104.902 137.276C105.02 136.85 105.095 136.414 105.123 135.973C105.123 135.973 106.095 135.711 106.287 135.239C106.394 134.843 106.416 134.428 106.351 134.023C106.351 134.023 107.876 134.291 108.068 133.441C108.201 132.382 108.158 131.308 107.94 130.263C107.789 129.605 108.592 123.524 108.522 123.343C108.452 123.163 108.842 121.155 107.882 121.556Z" fill="#FFBE9D"/>
<path d="M104.989 137.288C104.724 137.447 104.424 137.539 104.116 137.556C102.629 137.771 101.115 137.411 99.8848 136.549C99.425 136.217 99.198 135.967 99.2271 135.914C99.2562 135.862 100.35 136.747 101.98 137.125C103.61 137.503 104.971 137.183 104.989 137.288Z" fill="#EB996E"/>
<path d="M104.198 136.083C104.146 136.159 103.546 135.85 102.912 135.326C102.277 134.803 101.858 134.285 101.922 134.221C101.986 134.157 102.504 134.552 103.133 135.065C103.762 135.577 104.25 136.002 104.198 136.083Z" fill="#EB996E"/>
<path d="M105.961 133.191C105.909 133.266 105.315 132.964 104.722 132.411C104.128 131.858 103.779 131.299 103.849 131.247C103.919 131.195 104.384 131.637 104.954 132.166C105.525 132.696 106.014 133.109 105.961 133.191Z" fill="#EB996E"/>
<path d="M107.817 130.857C107.724 130.898 107.387 130.275 106.857 129.582C106.328 128.89 105.81 128.418 105.868 128.325C105.926 128.232 106.566 128.639 107.125 129.373C107.508 129.781 107.75 130.301 107.817 130.857Z" fill="#EB996E"/>
<path d="M110.082 238.795C110.126 238.613 110.126 238.424 110.082 238.242C109.987 237.739 109.789 237.261 109.5 236.839C109.405 236.693 109.294 236.558 109.168 236.438C109.086 236.36 108.984 236.306 108.873 236.281C108.762 236.257 108.647 236.262 108.539 236.298C108.476 236.32 108.419 236.356 108.371 236.403C108.324 236.451 108.288 236.508 108.266 236.572C108.225 236.692 108.225 236.823 108.266 236.944C108.345 237.146 108.443 237.341 108.557 237.526C108.772 237.893 108.953 238.254 109.232 238.69C109.314 238.807 109.425 238.9 109.556 238.959C109.686 239.017 109.83 239.039 109.971 239.022C110.231 238.975 110.477 238.868 110.687 238.707C111.073 238.425 111.424 238.099 111.735 237.736C111.884 237.563 112.024 237.382 112.154 237.194C112.295 237.01 112.4 236.801 112.462 236.577C112.497 236.446 112.485 236.306 112.427 236.183C112.37 236.06 112.271 235.96 112.148 235.902C112.033 235.868 111.911 235.864 111.794 235.891C111.676 235.917 111.568 235.973 111.479 236.054C111.212 236.286 110.978 236.552 110.78 236.845C110.487 237.256 110.254 237.707 110.088 238.184C110.011 238.352 109.971 238.534 109.971 238.719C110.247 238.107 110.58 237.522 110.966 236.973C111.164 236.711 111.39 236.473 111.642 236.263C111.775 236.17 111.938 236.106 112.037 236.158C112.095 236.192 112.139 236.245 112.162 236.307C112.185 236.37 112.187 236.438 112.165 236.502C112.105 236.684 112.012 236.853 111.892 237.002C111.77 237.177 111.636 237.346 111.496 237.514C111.195 237.853 110.859 238.159 110.495 238.428C110.325 238.559 110.125 238.647 109.913 238.684C109.826 238.695 109.738 238.681 109.659 238.644C109.58 238.607 109.512 238.548 109.465 238.475C109.238 238.143 109.017 237.73 108.801 237.386C108.702 237.206 108.58 237.031 108.522 236.886C108.464 236.74 108.522 236.624 108.609 236.577C108.86 236.478 109.11 236.764 109.279 237.002C109.657 237.544 109.93 238.152 110.082 238.795Z" fill="#263238"/>
<path d="M95.7817 239.284L88.6813 254.678L77.2217 249.381L84.5665 230.333L95.7817 239.284Z" fill="#FFBE9D"/>
<path d="M89.997 253.647L85.8474 261.562C85.8474 261.562 96.4689 272.545 95.4737 275.001L70.5059 263.029L77.3618 247.158L89.997 253.647Z" fill="#455A64"/>
<path d="M78.6712 256.778C78.3968 256.744 78.119 256.808 77.8876 256.959C77.6562 257.11 77.4862 257.339 77.4082 257.605C77.3556 257.878 77.4102 258.161 77.5609 258.395C77.7115 258.629 77.9466 258.796 78.2172 258.862C78.5087 258.906 78.8061 258.84 79.0522 258.678C79.2983 258.516 79.4757 258.268 79.55 257.983C79.5747 257.692 79.4854 257.402 79.3009 257.175C79.1163 256.948 78.8509 256.802 78.5606 256.767" fill="#E0E0E0"/>
<g opacity="0.6">
<path d="M70.5293 263.029L71.5653 261.039L95.1188 273.261C95.1188 273.261 95.9976 274.273 95.4971 275.007L70.5293 263.029Z" fill="white"/>
</g>
<path d="M86.3364 261.627C86.2782 261.749 85.638 261.51 84.8523 261.627C84.0666 261.743 83.4962 262.092 83.4089 261.987C83.3216 261.883 83.8396 261.272 84.7941 261.161C85.7486 261.05 86.4179 261.528 86.3364 261.627Z" fill="#263238"/>
<path d="M88.4369 263.966C88.4369 264.1 87.7792 264.053 87.1215 264.368C86.4639 264.682 86.0798 265.177 85.9575 265.113C85.8353 265.049 86.0914 264.321 86.9237 263.949C87.7559 263.576 88.4892 263.85 88.4369 263.966Z" fill="#263238"/>
<path d="M88.4193 267.813C88.2971 267.813 88.4193 267.097 89.0537 266.579C89.688 266.061 90.3864 266.067 90.3864 266.195C90.3864 266.323 89.8685 266.509 89.3505 266.94C88.8325 267.371 88.5473 267.86 88.4193 267.813Z" fill="#263238"/>
<path d="M87.529 258.583C87.4243 258.67 86.947 258.233 86.237 257.948C85.5269 257.663 84.8809 257.622 84.8693 257.488C84.8576 257.355 85.5793 257.168 86.4116 257.488C87.2438 257.809 87.6338 258.513 87.529 258.583Z" fill="#263238"/>
<path d="M92.3599 251.593L111.083 204.748C111.083 204.748 110.658 196.751 109.185 194.231C107.713 191.711 63.1202 176.98 63.1202 176.98C63.1202 176.98 51.7653 174.245 44.1877 176.98C36.6101 179.716 30.9356 189.202 31.9657 194.44C32.9958 199.678 37.454 203.56 37.454 203.56L70.2497 204.538L88.1229 211.056L76.0871 245.552L92.3599 251.593Z" fill="#263238"/>
<path d="M109.011 219.583L109.436 236.525L96.8119 236.839L94.9961 216.504L109.011 219.583Z" fill="#FFBE9D"/>
<path d="M110.186 235.012L109.953 243.945C109.953 243.945 124.329 249.108 124.503 251.756L96.8175 252.035L95.9619 234.767L110.186 235.012Z" fill="#455A64"/>
<path d="M101.381 242.833C101.115 242.917 100.89 243.096 100.748 243.335C100.606 243.575 100.558 243.858 100.613 244.131C100.687 244.4 100.861 244.629 101.099 244.773C101.337 244.917 101.621 244.964 101.893 244.905C102.174 244.815 102.411 244.624 102.559 244.37C102.708 244.115 102.756 243.815 102.696 243.526C102.592 243.253 102.385 243.032 102.12 242.909C101.854 242.786 101.552 242.772 101.276 242.868" fill="#E0E0E0"/>
<g opacity="0.6">
<path d="M96.835 252.035L96.8873 249.789L123.415 250.371C123.415 250.371 124.649 250.894 124.521 251.767L96.835 252.035Z" fill="white"/>
</g>
<path d="M110.402 243.8C110.402 243.934 109.721 244.003 109.063 244.446C108.405 244.888 108.05 245.458 107.928 245.406C107.806 245.354 107.998 244.568 108.807 244.05C109.616 243.532 110.431 243.677 110.402 243.8Z" fill="#263238"/>
<path d="M113.318 244.969C113.353 245.103 112.765 245.336 112.311 245.912C111.857 246.489 111.729 247.076 111.601 247.076C111.473 247.076 111.368 246.308 111.95 245.598C112.532 244.888 113.312 244.841 113.318 244.969Z" fill="#263238"/>
<path d="M115.023 248.432C114.9 248.462 114.708 247.786 115.023 247.042C115.337 246.297 115.994 246 116.053 246.11C116.111 246.221 115.721 246.622 115.471 247.234C115.22 247.845 115.133 248.415 115.023 248.432Z" fill="#263238"/>
<path d="M110.122 240.54C110.07 240.663 109.447 240.482 108.685 240.54C107.922 240.599 107.328 240.849 107.253 240.732C107.177 240.616 107.748 240.15 108.65 240.075C109.552 239.999 110.192 240.43 110.122 240.54Z" fill="#263238"/>
<path d="M101.637 172.534C101.637 172.534 109.203 171.952 110.041 180.135C110.879 188.318 111.706 226.625 111.706 226.625L94.0711 228.097L91.3357 188.969L63.1494 176.98C63.1494 176.98 96.5911 171.486 101.637 172.534Z" fill="#263238"/>
<path d="M70.4769 161.464C70.4769 161.464 75.0631 174.332 74.1901 175.764C73.3171 177.196 61.5199 183.097 61.5199 183.097L31.9893 194.44C31.9893 194.44 28.957 189.616 28.957 182.218C28.957 174.821 39.2293 161.476 39.2293 161.476L70.4769 161.464Z" fill="#263238"/>
<path d="M61.7236 176.346C61.7674 176.376 61.8142 176.402 61.8633 176.422L62.2824 176.614L63.9178 177.341L70.0579 180.019L91.2485 189.139L91.1496 189.005C91.4173 192.869 91.7316 197.042 92.0051 201.361C92.7268 211.458 93.3903 220.764 93.9141 228.133V228.266H94.0479L106.922 227.137L110.466 226.806L111.392 226.712L111.706 226.666C111.599 226.657 111.492 226.657 111.386 226.666L110.46 226.724L106.91 226.986L94.0246 227.999L94.1701 228.121C93.6638 220.759 93.0061 211.447 92.331 201.349C92.0284 197.03 91.749 192.858 91.458 188.993V188.9L91.3707 188.859L70.1335 179.838L63.9585 177.254L62.3056 176.573L61.875 176.404C61.8261 176.381 61.7755 176.362 61.7236 176.346Z" fill="#455A64"/>
<path d="M38.2393 177.609C38.5237 177.565 38.8027 177.491 39.0715 177.388L41.2948 176.666C43.7212 175.847 46.2081 175.218 48.7327 174.786C51.2585 174.374 53.8369 174.408 56.3511 174.885C58.2717 175.287 59.3775 175.834 59.4008 175.77C59.1621 175.608 58.904 175.477 58.6325 175.38C57.9114 175.077 57.1657 174.835 56.4035 174.658C53.8628 174.105 51.2402 174.038 48.6745 174.461C46.1296 174.89 43.63 175.555 41.2075 176.445C40.2763 176.777 39.5313 177.062 39.0133 177.266C38.7463 177.359 38.4874 177.474 38.2393 177.609Z" fill="#455A64"/>
<path d="M42.4121 170.828C43.2727 170.776 44.1356 170.776 44.9962 170.828C45.7935 170.881 46.7422 171.003 47.7898 171.125C48.8374 171.248 49.9956 171.393 51.1945 171.62C53.2458 171.946 55.2121 172.676 56.9796 173.768C57.6849 174.259 58.3557 174.797 58.9875 175.38C58.8716 175.175 58.7265 174.989 58.5568 174.827C58.1204 174.357 57.6345 173.935 57.1076 173.57C55.3408 172.402 53.3444 171.626 51.2527 171.294C50.0421 171.067 48.8781 170.933 47.8247 170.823C46.7713 170.712 45.8168 170.619 45.0078 170.596C44.3704 170.568 43.7316 170.595 43.0989 170.677C42.8639 170.694 42.6326 170.745 42.4121 170.828Z" fill="#455A64"/>
<path d="M55.4548 67.4421C52.0618 66.8601 49.0528 68.1696 46.2068 70.0844C43.2941 72.1318 41.0743 75.0182 39.8433 78.3589C38.6122 81.6996 38.4282 85.3362 39.316 88.7841C39.8075 90.5363 40.6487 92.1709 41.789 93.5893C42.9293 95.0076 44.345 96.1804 45.9508 97.0368C50.3681 99.2775 56.0194 98.4977 59.977 95.5062C63.9346 92.5147 66.1869 87.5735 66.379 82.6207C66.5623 79.1858 65.6625 75.78 63.8065 72.8838C62.8656 71.453 61.64 70.2314 60.2061 69.2951C58.7721 68.3589 57.1607 67.7281 55.4723 67.4421" fill="#263238"/>
<path d="M45.7938 78.995C46.2943 77.6913 46.0965 76.2421 46.2943 74.8628C46.7308 71.8306 49.2043 69.3978 51.9979 68.2163C54.6286 67.1164 57.8179 67.355 61.0073 68.3793C63.2072 69.0461 65.1716 70.326 66.6702 72.0692C67.6238 73.2518 68.28 74.6459 68.5838 76.1345C68.8876 77.6231 68.8301 79.1628 68.4162 80.6246L52.9 78.3664C51.445 79.5653 49.9551 80.7934 48.1917 81.4627C47.6833 81.6856 47.1261 81.7738 46.5737 81.7187C46.2986 81.686 46.0386 81.5747 45.825 81.3983C45.6114 81.2218 45.4531 80.9875 45.369 80.7235C45.2293 80.1357 45.5785 79.5595 45.7938 78.995Z" fill="#263238"/>
<path d="M61.3386 72.6627L47.7897 75.5378C47.1617 75.5794 46.5718 75.8535 46.135 76.3065C45.6981 76.7595 45.4456 77.359 45.4268 77.988L45.5897 107.315C45.6034 109.317 46.2741 111.26 47.4987 112.844L48.7907 114.508C51.7415 118.309 57.707 117.925 59.9593 113.676C60.0971 113.435 60.2027 113.177 60.2736 112.908C60.3143 112.646 60.3842 112.471 60.3958 112.25L60.6577 109.387C60.7857 106.78 60.809 104.149 60.809 104.149C60.809 104.149 66.3555 103.45 67.793 96.3035C68.4972 92.7533 68.5438 86.881 68.4274 82.0795C68.3052 77.7785 65.6571 72.3775 61.3386 72.6627Z" fill="#FFBE9D"/>
<path d="M66.3498 87.6086C66.3422 87.8484 66.2412 88.0757 66.0683 88.2421C65.8954 88.4085 65.6644 88.5007 65.4244 88.499C65.3066 88.5045 65.1889 88.4862 65.0783 88.4452C64.9677 88.4042 64.8665 88.3414 64.7807 88.2605C64.6949 88.1796 64.6262 88.0822 64.5789 87.9742C64.5315 87.8662 64.5063 87.7498 64.5049 87.6318C64.5139 87.392 64.6152 87.1648 64.7876 86.9979C64.96 86.8309 65.1902 86.7369 65.4303 86.7356C65.5484 86.7309 65.6662 86.7499 65.7768 86.7915C65.8875 86.8332 65.9886 86.8966 66.0743 86.9779C66.1601 87.0593 66.2286 87.1571 66.2759 87.2654C66.3232 87.3737 66.3484 87.4904 66.3498 87.6086Z" fill="#263238"/>
<path d="M67.0249 85.1001C66.9026 85.2165 66.2275 84.6752 65.2323 84.6403C64.2371 84.6054 63.4863 85.071 63.3932 84.943C63.3001 84.8149 63.463 84.6753 63.7889 84.4599C64.2302 84.1764 64.7492 84.038 65.273 84.0642C65.7876 84.0817 66.2831 84.2631 66.6873 84.5821C66.9841 84.8324 67.0831 85.0536 67.0249 85.1001Z" fill="#263238"/>
<path d="M57.4573 87.3816C57.4512 87.6224 57.3508 87.8512 57.1778 88.0188C57.0047 88.1864 56.7728 88.2794 56.5319 88.2778C56.4146 88.2825 56.2975 88.2636 56.1876 88.2223C56.0776 88.1809 55.9771 88.118 55.8919 88.0372C55.8068 87.9563 55.7387 87.8592 55.6916 87.7516C55.6446 87.644 55.6196 87.5281 55.6182 87.4107C55.6242 87.1708 55.7238 86.9429 55.8956 86.7754C56.0674 86.608 56.2978 86.5143 56.5377 86.5144C56.6553 86.5097 56.7727 86.5286 56.883 86.5698C56.9932 86.6111 57.0941 86.674 57.1797 86.7547C57.2654 86.8355 57.334 86.9325 57.3817 87.0402C57.4294 87.1478 57.4551 87.2639 57.4573 87.3816Z" fill="#263238"/>
<path d="M57.6029 84.8613C57.4807 84.9777 56.8056 84.4306 55.8104 84.3957C54.8152 84.3608 54.0644 84.8264 53.9713 84.7042C53.8781 84.582 54.0411 84.4365 54.3728 84.2153C54.8139 83.9361 55.3296 83.7981 55.8511 83.8196C56.3678 83.8403 56.8648 84.0236 57.2712 84.3434C57.5622 84.5878 57.6611 84.809 57.6029 84.8613Z" fill="#263238"/>
<path d="M60.5766 92.4043C61.1075 92.2675 61.6522 92.1914 62.2003 92.1774C62.4564 92.1774 62.695 92.1192 62.7474 91.9504C62.7773 91.6899 62.7287 91.4264 62.6077 91.1938C62.3924 90.571 62.1654 89.9192 61.9326 89.2324C60.9956 86.4447 60.3321 84.1574 60.4427 84.1225C60.5533 84.0876 61.4088 86.3166 62.34 89.1044C62.5612 89.7912 62.7765 90.443 62.9802 91.0716C63.1297 91.3834 63.1627 91.7385 63.0733 92.0726C63.0323 92.16 62.9724 92.2371 62.8979 92.2985C62.8234 92.3599 62.7363 92.404 62.6427 92.4276C62.501 92.4569 62.3566 92.4706 62.212 92.4684C61.6664 92.5195 61.1165 92.498 60.5766 92.4043Z" fill="#263238"/>
<path d="M60.8096 104.178C57.4227 104.1 54.1241 103.083 51.2822 101.239C51.2822 101.239 53.5055 106.308 60.7281 105.895L60.8096 104.178Z" fill="#EB996E"/>
<path d="M60.0649 94.7786C59.8853 94.5338 59.6462 94.3391 59.3701 94.2127C59.0941 94.0864 58.7903 94.0328 58.4877 94.0569C58.2641 94.0687 58.0454 94.1265 57.8451 94.2267C57.6448 94.3268 57.4673 94.4671 57.3237 94.6389C57.1875 94.7974 57.1023 94.9933 57.0795 95.2011C57.0566 95.4088 57.0971 95.6186 57.1957 95.8029C57.3485 95.9863 57.5523 96.1201 57.7813 96.1875C58.0103 96.2548 58.2541 96.2526 58.4819 96.1812C58.9581 96.0347 59.3996 95.7931 59.7798 95.4711C59.896 95.3984 59.9969 95.3034 60.0766 95.1918C60.1131 95.1366 60.1326 95.0718 60.1326 95.0056C60.1326 94.9393 60.1131 94.8746 60.0766 94.8193" fill="#EB996E"/>
<path d="M57.6315 92.9804C57.7945 92.9804 57.7537 94.0512 58.6442 94.8544C59.5347 95.6576 60.687 95.5819 60.6928 95.7332C60.6928 95.7972 60.4251 95.9311 59.9421 95.9253C59.31 95.9089 58.704 95.6698 58.231 95.2502C57.7814 94.8538 57.5021 94.2992 57.4511 93.702C57.4046 93.2306 57.5559 92.9687 57.6315 92.9804Z" fill="#263238"/>
<path d="M57.5441 81.9166C57.4394 82.1843 56.45 82.0155 55.2801 82.1086C54.1103 82.2018 53.1617 82.4869 53.0162 82.2367C52.9521 82.1203 53.1209 81.87 53.5109 81.6256C54.0278 81.3196 54.6106 81.142 55.2103 81.1076C55.8058 81.0569 56.4048 81.1508 56.9563 81.3811C57.4044 81.5674 57.5907 81.7885 57.5441 81.9166Z" fill="#263238"/>
<path d="M66.9027 80.7524C66.7222 80.9736 66.0471 80.7117 65.2265 80.6651C64.4059 80.6185 63.7017 80.7582 63.5503 80.5196C63.4805 80.4032 63.6027 80.182 63.9112 79.9783C64.3289 79.7318 64.8131 79.622 65.2963 79.6641C65.7779 79.69 66.2396 79.8649 66.6175 80.1646C66.8968 80.409 66.9841 80.6476 66.9027 80.7524Z" fill="#263238"/>
<path d="M43.3086 76.8998C44.717 72.7734 50.8746 67.1513 55.193 67.5412L62.0607 71.8422C61.8107 73.0232 61.246 74.1146 60.4264 75.0009C59.6067 75.8872 58.5626 76.5352 57.4046 76.8765C56.165 77.2257 54.6867 77.3013 53.9127 78.3431C53.1386 79.3849 53.5518 80.9854 52.836 82.0796C51.8407 83.6044 49.2159 83.4764 48.4593 85.1292C48.1334 85.8509 48.2789 86.7239 47.9355 87.4572C47.4816 88.4117 45.0255 89.5815 44.0187 89.244C43.0118 88.9064 43.0467 87.1895 42.7383 86.2816C42.3412 85.2603 42.3124 84.1325 42.6568 83.0922C43.1573 81.0494 42.6393 78.8669 43.3086 76.8998Z" fill="#263238"/>
<path d="M46.9984 90.1344C46.9984 89.599 46.4164 88.3128 45.9217 88.208C44.5191 87.9345 41.9699 87.9519 41.807 91.5371C41.5858 96.4375 46.5503 95.646 46.5677 95.5063C46.5852 95.3666 46.9286 91.9852 46.9984 90.1344Z" fill="#FFBE9D"/>
<path d="M45.183 93.5858C45.183 93.5858 45.0957 93.6382 44.9444 93.6964C44.7409 93.7783 44.5135 93.7783 44.31 93.6964C43.7979 93.481 43.4021 92.6371 43.4137 91.7583C43.4232 91.3361 43.5245 90.9211 43.7106 90.5419C43.7644 90.3913 43.8539 90.2559 43.9715 90.1475C44.0891 90.039 44.2312 89.9607 44.3857 89.9192C44.4843 89.8967 44.5877 89.9101 44.6774 89.957C44.767 90.004 44.8369 90.0814 44.8746 90.1753C44.9328 90.315 44.8746 90.4139 44.9269 90.4197C44.9793 90.4255 45.0317 90.3441 45.0026 90.1404C44.9843 90.0179 44.9223 89.9063 44.828 89.8261C44.7634 89.7708 44.6884 89.729 44.6075 89.703C44.5266 89.677 44.4413 89.6674 44.3566 89.6748C44.1538 89.7067 43.9625 89.7897 43.8006 89.916C43.6387 90.0422 43.5116 90.2076 43.4312 90.3964C43.205 90.811 43.0832 91.2745 43.0762 91.7467C43.0762 92.7361 43.5243 93.6847 44.2402 93.9234C44.3699 93.9669 44.5076 93.9811 44.6435 93.965C44.7793 93.9489 44.9099 93.9029 45.0259 93.8302C45.1365 93.7022 45.183 93.5916 45.183 93.5858Z" fill="#EB996E"/>
<path d="M42.273 75.6602C42.273 74.1237 40.3757 73.1226 38.8799 72.7502C37.3539 72.488 35.7845 72.7878 34.4626 73.5941C33.6769 74.0247 32.8854 74.6417 32.7166 75.5205C32.5478 76.3993 33.3859 77.4469 34.2239 77.1326C33.8144 77.2666 33.4396 77.4899 33.1269 77.7864C32.8141 78.0828 32.5711 78.4451 32.4154 78.8469C32.2596 79.2487 32.1951 79.6801 32.2264 80.1099C32.2578 80.5397 32.3842 80.9572 32.5965 81.3322C32.8089 81.7072 33.1018 82.0304 33.4543 82.2784C33.8068 82.5263 34.2099 82.6929 34.6346 82.7661C35.0593 82.8393 35.4949 82.8172 35.91 82.7015C36.3252 82.5858 36.7094 82.3794 37.035 82.0971C36.6099 83.5184 35.7101 84.751 34.4858 85.5891C35.7522 85.7708 37.0441 85.6157 38.2315 85.1392C39.4188 84.6628 40.4596 83.882 41.2491 82.8753C42.0387 81.8686 42.549 80.6717 42.7287 79.405C42.9085 78.1384 42.7513 76.8467 42.273 75.6602Z" fill="#263238"/>
<path d="M38.8625 83.4239C38.7169 82.9473 38.6539 82.4493 38.6763 81.9515C38.6568 79.5303 39.4521 77.1729 40.9345 75.2585C41.2143 74.8468 41.5651 74.4882 41.9704 74.1992C40.9469 75.5061 40.1303 76.9626 39.5493 78.5177C38.6472 81.1367 38.9731 83.4297 38.8625 83.4239Z" fill="#556C40"/>
<path d="M60.6289 70.3639C61.077 72.3602 64.1209 74.9152 65.442 76.4691C67.9796 79.4315 68.4801 80.4151 68.4568 87.0441C69.6557 84.7568 70.5753 82.5103 70.4822 79.932C70.4257 77.3203 69.4154 74.8196 67.642 72.9015C66.7546 71.9656 65.6616 71.2491 64.4494 70.8087C63.2372 70.3683 61.9392 70.216 60.658 70.3639" fill="#263238"/>
<path d="M81.4123 124.885C81.4123 124.885 76.1277 116.08 74.6611 114.299C73.4834 112.922 72.0035 111.837 70.3368 111.127C69.6786 110.843 68.9889 110.638 68.2824 110.516L60.6814 108.834C60.6814 108.834 60.6814 114.02 55.2397 114.34C49.798 114.66 45.2352 107.088 45.2352 107.088C45.2352 107.088 36.4528 108.45 34.3576 109.532C32.2624 110.615 28.9566 111.983 27.1408 121.056L25.8662 129.949L40.9982 131.346L42.4474 153.834L49.9494 159.072C49.9494 159.072 70.7559 164.479 72.0654 164.834C73.3749 165.189 73.8114 131.357 73.8114 131.357C73.8114 131.357 79.2007 127.918 81.4123 124.885Z" fill="#263238"/>
<path d="M71.4482 121.103C71.5709 121.308 71.6704 121.527 71.7451 121.754C71.9138 122.179 72.135 122.802 72.3794 123.582C73.6517 127.668 74.1762 131.95 73.9276 136.223C73.881 137.038 73.817 137.695 73.7471 138.149C73.7317 138.386 73.6908 138.62 73.6249 138.848C73.5971 138.612 73.5971 138.374 73.6249 138.138C73.654 137.684 73.6889 137.026 73.7064 136.211C73.7631 134.092 73.6659 131.972 73.4154 129.867C73.153 127.766 72.7367 125.686 72.1699 123.646C71.9546 122.86 71.7625 122.226 71.6228 121.795C71.5404 121.571 71.4819 121.339 71.4482 121.103Z" fill="#455A64"/>
<path d="M70.7906 157.937L42.2726 151.733L40.9572 131.363L28.2871 130.199C28.2871 130.199 28.7585 144.121 29.2416 148.241C29.9458 154.195 33.4611 162.32 35.5214 163.955C37.5816 165.591 72.0419 164.846 72.0419 164.846L70.7906 157.937Z" fill="#FFBE9D"/>
<path d="M86.9766 161.627C86.8818 161.824 86.7303 161.988 86.5415 162.098C86.3527 162.208 86.1353 162.259 85.9174 162.244C85.8244 162.238 85.7326 162.22 85.6438 162.192C85.0095 161.988 85.0618 160.702 85.0618 160.702L82.0471 160.213C82.0471 160.213 78.1186 162.745 76.7218 164.421C75.325 166.097 71.7631 164.741 71.7631 164.741L70.5293 158.304L76.0874 153.281C76.0874 153.281 75.7498 153.578 76.134 152.641C76.5181 151.704 78.2583 152.059 78.2583 152.059C78.5318 151.594 79.6725 151.431 79.6725 151.431L84.5497 152.013C85.0452 152.07 85.5215 152.238 85.9435 152.504C86.3656 152.77 86.7226 153.127 86.9883 153.549L89.0544 156.814C89.0544 156.814 90.1427 159.142 89.9681 159.724C89.8904 159.958 89.7273 160.154 89.5115 160.272C89.2957 160.391 89.0431 160.424 88.8041 160.364C88.8041 160.364 88.5655 161.912 88.1581 161.965C87.742 161.943 87.3335 161.845 86.9533 161.674L86.9766 161.627Z" fill="#FFBE9D"/>
<path d="M76.6104 157.006C76.6104 157.058 77.2622 157.006 78.304 157.041C79.6568 157.106 80.9943 157.357 82.279 157.786C82.9862 158.023 83.6732 158.317 84.3335 158.665C84.9155 158.996 85.5324 159.247 85.7245 159.695C85.7678 159.788 85.7858 159.891 85.7766 159.993C85.7674 160.095 85.7314 160.193 85.6721 160.277C85.5838 160.414 85.456 160.522 85.3054 160.585C85.1672 160.634 85.0211 160.655 84.8748 160.649C84.8748 160.649 85.0261 160.783 85.3404 160.702C85.5301 160.65 85.6964 160.535 85.8118 160.376C85.8956 160.27 85.9504 160.144 85.9708 160.01C85.9912 159.876 85.9765 159.74 85.9282 159.613C85.8041 159.333 85.6021 159.095 85.3462 158.927C85.0784 158.758 84.7991 158.577 84.4906 158.409C83.8222 158.042 83.1231 157.734 82.4012 157.489C81.0888 157.045 79.7127 156.819 78.3272 156.82C77.7487 156.791 77.1693 156.854 76.6104 157.006Z" fill="#EB996E"/>
<path d="M76.2617 160.114C76.2617 160.207 78.2522 160.114 80.6907 160.265C83.1293 160.417 85.0848 160.708 85.1023 160.615C84.6954 160.455 84.2685 160.351 83.8335 160.306C82.7992 160.131 81.7558 160.014 80.7082 159.957C79.6595 159.898 78.6083 159.898 77.5596 159.957C77.1218 159.949 76.685 160.002 76.2617 160.114Z" fill="#EB996E"/>
<path d="M86.9466 161.505C86.9895 161.336 87.011 161.162 87.0107 160.987C87.0403 160.51 87.0403 160.032 87.0107 159.555C86.9941 159.222 86.9493 158.891 86.8768 158.566C86.789 158.185 86.6269 157.825 86.3996 157.507C85.9191 156.77 85.2981 156.135 84.5721 155.638C83.8553 155.142 83.0714 154.75 82.2441 154.474C81.5578 154.281 80.8501 154.173 80.1372 154.154C79.5552 154.154 79.0547 154.154 78.7172 154.154C78.5409 154.143 78.3639 154.16 78.1934 154.207C78.8337 154.298 79.4789 154.353 80.1256 154.37C80.8166 154.416 81.5 154.541 82.1626 154.742C82.9565 155.032 83.7097 155.423 84.4033 155.906C85.0898 156.387 85.6817 156.991 86.1493 157.687C86.5321 158.253 86.7516 158.914 86.7837 159.596C86.9117 160.754 86.8826 161.505 86.9466 161.505Z" fill="#EB996E"/>
<path d="M79.9111 152.659C79.9111 152.705 80.6386 152.729 81.8026 152.862C82.9666 152.996 84.7126 153.113 85.7428 154.661C86.734 155.816 87.5605 157.103 88.1988 158.485C88.4101 159.078 88.566 159.69 88.6644 160.312C88.6988 160.141 88.6988 159.965 88.6644 159.794C88.6346 159.321 88.5386 158.855 88.3792 158.409C87.7893 156.973 86.9696 155.642 85.9523 154.469C85.6806 154.109 85.3637 153.787 85.0094 153.508C84.6601 153.256 84.2647 153.074 83.8454 152.973C83.17 152.792 82.4776 152.681 81.7794 152.641C81.1581 152.573 80.531 152.579 79.9111 152.659Z" fill="#EB996E"/>
<path d="M77.7749 163.385C77.8781 163.32 77.9754 163.246 78.0659 163.164L78.8807 162.506C79.9059 161.709 80.9767 160.973 82.0875 160.3H82.0177L85.0324 160.813L84.9277 160.685C84.9181 160.932 84.9376 161.18 84.9859 161.424C85.0255 161.695 85.145 161.948 85.3293 162.151C85.4398 162.251 85.5775 162.316 85.725 162.337C85.8654 162.363 86.0095 162.363 86.1499 162.337C86.443 162.294 86.7101 162.145 86.9007 161.918C86.9516 161.865 86.9965 161.807 87.0345 161.744L87.0636 161.691L86.889 161.755L86.9821 161.79C87.1102 161.843 87.2382 161.889 87.3721 161.93C87.5059 161.971 87.6398 162.006 87.7853 162.035C87.8608 162.041 87.9367 162.041 88.0123 162.035C88.1083 162.041 88.2043 162.023 88.2916 161.982C88.424 161.878 88.5248 161.739 88.5826 161.581C88.6442 161.447 88.6948 161.309 88.734 161.168C88.8158 160.887 88.88 160.601 88.926 160.312L88.7514 160.434C88.9559 160.477 89.1681 160.464 89.3657 160.396C89.5633 160.329 89.7391 160.209 89.8747 160.05C90.0092 159.886 90.0832 159.68 90.0842 159.468C90.0679 159.271 90.0328 159.076 89.9794 158.886C89.7509 158.145 89.4729 157.419 89.1472 156.715L88.0472 154.969L87.3488 153.869C87.1366 153.484 86.8808 153.125 86.5864 152.798C86.2745 152.485 85.9023 152.237 85.4922 152.071C85.0926 151.922 84.6725 151.836 84.2467 151.815L79.6548 151.297H79.6198C79.3436 151.341 79.0725 151.413 78.8109 151.512C78.5316 151.596 78.2866 151.767 78.1125 152.001L78.2812 151.949C78.0331 151.834 77.7605 151.782 77.4876 151.797C77.2146 151.812 76.9495 151.894 76.7157 152.036C76.3084 152.332 76.0311 152.774 75.9416 153.27L75.9765 153.206L72.147 156.651L71.1168 157.6C70.9898 157.703 70.8747 157.82 70.7734 157.949C70.91 157.86 71.0385 157.758 71.1576 157.646L72.2343 156.744L76.1278 153.38H76.1569V153.34C76.2402 152.908 76.4834 152.523 76.8379 152.263C77.038 152.15 77.2623 152.086 77.4921 152.077C77.7219 152.068 77.9506 152.113 78.159 152.211L78.2638 152.251L78.3278 152.158C78.4796 151.978 78.6826 151.848 78.9098 151.786C79.1531 151.697 79.4046 151.633 79.6606 151.594H79.6198L84.2118 152.135C84.6098 152.158 85.0021 152.241 85.3758 152.379C85.7473 152.528 86.0841 152.752 86.3652 153.037C86.6431 153.349 86.8851 153.69 87.0869 154.056L87.7853 155.161C88.1636 155.743 88.5361 156.325 88.8853 156.907C89.2091 157.593 89.4833 158.301 89.7059 159.026C89.7574 159.194 89.7905 159.368 89.8048 159.544C89.808 159.695 89.7563 159.841 89.6593 159.957C89.5604 160.073 89.4316 160.16 89.287 160.208C89.1424 160.256 88.9874 160.264 88.8387 160.231H88.6816V160.376C88.6372 160.653 88.577 160.927 88.5012 161.197C88.4518 161.437 88.3438 161.661 88.1869 161.849C88.1464 161.855 88.1051 161.855 88.0647 161.849H87.8784C87.7562 161.849 87.6282 161.79 87.5001 161.755L87.1276 161.627L87.0403 161.592L86.8599 161.656V161.691C86.8317 161.741 86.7986 161.788 86.761 161.831C86.6131 162.008 86.4065 162.126 86.179 162.163C86.0696 162.186 85.9566 162.186 85.8472 162.163C85.7445 162.153 85.6471 162.112 85.5679 162.046C85.3125 161.678 85.1969 161.23 85.242 160.783V160.673H85.1372L82.1108 160.201H82.0759H82.0468C80.9396 160.894 79.8799 161.66 78.8749 162.495C78.5257 162.791 78.2638 163.03 78.0892 163.193C77.9778 163.245 77.8724 163.31 77.7749 163.385Z" fill="#EB996E"/>
<path d="M123.939 142.904L86.4171 143.213C85.1949 143.213 84.0367 143.795 83.8505 145L79.7765 172.354H60.4192C60.1345 172.374 59.8681 172.502 59.6736 172.71C59.4792 172.919 59.3711 173.194 59.3711 173.48C59.3711 173.765 59.4792 174.04 59.6736 174.249C59.8681 174.458 60.1345 174.585 60.4192 174.606H122.158L126.377 145.739C126.43 145.388 126.406 145.029 126.308 144.688C126.21 144.347 126.039 144.032 125.808 143.763C125.576 143.494 125.289 143.278 124.967 143.129C124.644 142.981 124.294 142.905 123.939 142.904Z" fill="#E0E0E0"/>
<path d="M123.939 142.904C124.135 142.896 124.331 142.916 124.521 142.963C125.021 143.081 125.471 143.351 125.811 143.735C126.15 144.12 126.363 144.6 126.419 145.11C126.433 145.628 126.386 146.146 126.279 146.652L125.738 150.465C124.911 156.197 123.724 164.462 122.246 174.623V174.722H122.147L62.2532 174.757H60.6411C60.3481 174.785 60.0533 174.729 59.7914 174.594C59.5911 174.484 59.424 174.323 59.3077 174.126C59.1913 173.93 59.1299 173.705 59.1299 173.477C59.1299 173.248 59.1913 173.024 59.3077 172.828C59.424 172.631 59.5911 172.469 59.7914 172.359C60.0542 172.228 60.3487 172.174 60.6411 172.202H79.754L79.6085 172.33C81.0809 162.535 82.4603 153.398 83.6825 145.197C83.7228 144.65 83.973 144.139 84.3809 143.772C84.788 143.428 85.2847 143.208 85.8126 143.137C86.3154 143.088 86.8208 143.071 87.3258 143.085H88.7983L94.4495 143.05L104.489 142.986L118.783 142.91H123.928C123.928 142.91 123.817 142.91 123.596 142.91H122.607L118.783 142.963L104.489 143.12L94.4495 143.224L88.7983 143.277H87.3258C86.8344 143.268 86.3428 143.285 85.8533 143.329C85.3699 143.393 84.9152 143.595 84.5438 143.911C84.3628 144.074 84.2156 144.271 84.1107 144.491C84.0059 144.71 83.9454 144.949 83.9327 145.192C82.7105 153.392 81.3487 162.529 79.8587 172.324V172.453H60.6527C60.4136 172.422 60.1708 172.463 59.9543 172.569C59.7574 172.682 59.6053 172.859 59.5237 173.071C59.4421 173.283 59.4359 173.517 59.5062 173.733C59.5894 173.951 59.7457 174.134 59.9485 174.251C60.1672 174.357 60.4112 174.399 60.6527 174.373H62.2649L122.158 174.408L122.042 174.507C123.549 164.351 124.772 156.092 125.621 150.36C125.837 148.934 126.029 147.659 126.203 146.559C126.311 146.06 126.364 145.551 126.361 145.04C126.312 144.542 126.111 144.071 125.785 143.691C125.459 143.311 125.024 143.04 124.539 142.916C124.339 142.902 124.139 142.898 123.939 142.904Z" fill="#263238"/>
<path d="M103.587 160.76C104.885 160.76 105.938 159.707 105.938 158.409C105.938 157.11 104.885 156.058 103.587 156.058C102.288 156.058 101.235 157.11 101.235 158.409C101.235 159.707 102.288 160.76 103.587 160.76Z" fill="white"/>
<path d="M81.2671 174.35C81.3194 174.35 82.5125 167.395 83.9326 158.799C85.3527 150.203 86.4643 143.219 86.4119 143.213C86.3595 143.207 85.1606 150.168 83.7406 158.764C82.3205 167.36 81.2205 174.344 81.2671 174.35Z" fill="#263238"/>
</svg>
